<svg version="1.1" viewBox="0.0 0.0 115200.0 60480.0" fill="none" stroke="none" stroke-linecap="square" stroke-miterlimit="10" xmlns:xlink="http://www.w3.org/1999/xlink" xmlns="http://www.w3.org/2000/svg"><clipPath id="p.0"><path d="m0 0l115200.0 0l0 60480.0l-115200.0 0l0 -60480.0z" clip-rule="nonzero"/></clipPath><g clip-path="url(#p.0)"><path fill="#000000" fill-opacity="0.0" d="m0 0l115200.0 0l0 60480.0l-115200.0 0z" fill-rule="evenodd"/><path fill="#ff00ff" d="m23736.666 40711.953c-278.60547 0 -417.90625 101.69922 -417.90625 305.10547l0 200.99219c0 210.15234 139.30078 315.22656 417.90625 315.22656l272.03125 0c270.7207 0 406.07812 -105.07422 406.07812 -315.22656l0 -200.99219c0 -203.40625 -135.35742 -305.10547 -406.07812 -305.10547zm137.98633 1629.6367c-214.20703 0 -321.31445 77.11719 -321.31445 231.35938l0 3730.664c0 157.13281 107.10742 235.69531 321.31445 235.69531c210.26562 0 315.4004 -78.5625 315.4004 -235.69531l0 -3730.664c0 -154.24219 -105.134766 -231.35938 -315.4004 -231.35938z" fill-rule="evenodd"/><path fill="#ff00ff" d="m28759.625 41280.09c14.611328 0 29.31836 0.046875 44.125 0.13671875l1466.6113 0c463.9004 0 833.18164 45.308594 1107.8438 135.92578c274.66016 89.65234 472.4414 235.21484 593.3457 436.6914c120.9043 201.47266 181.35547 472.35547 181.35547 812.64844l0 2021.5c0 343.1836 -60.45117 615.5117 -181.35547 816.9844c-120.90234 201.47656 -318.6836 346.5586 -593.3457 435.2461c-274.66016 88.6875 -643.9414 133.03125 -1107.8438 133.03125l-1452.8125 0c-469.1582 0 -841.06836 -44.34375 -1115.7285 -133.03125c-274.6621 -88.6875 -472.44336 -233.76953 -593.34766 -435.2461c-120.90234 -201.47266 -181.35547 -473.8047 -181.35547 -816.9844l0 -2025.8398c0 -343.1836 60.453125 -615.9922 181.35547 -818.4336c120.90234 -203.40234 317.3711 -348.48438 589.4043 -435.2422c264.62305 -84.92578 618.53906 -127.38672 1061.748 -127.38672zm-5.658203 -467.08594c-841.9219 0 -1460.7285 144.65625 -1856.418 433.96484c-403.45117 294.01953 -605.1738 765.41406 -605.1738 1414.1836l0 2025.8398c0 642.9844 201.72266 1112.4492 605.1738 1408.3984c403.44922 295.9453 1043.4512 443.91797 1920.0 443.91797l1452.8125 0c875.2363 0 1513.9219 -147.97266 1916.0566 -443.91797c402.13477 -295.94922 603.2031 -765.41406 603.2031 -1408.3984l0 -2021.5c0 -642.02344 -201.06836 -1111.0078 -603.2031 -1406.9531c-402.13477 -296.91016 -1040.8203 -445.3672 -1916.0566 -445.3672l-1466.6113 0c-16.68164 -0.109375 -33.27539 -0.16796875 -49.783203 -0.16796875z" fill-rule="evenodd"/><path fill="#ff00ff" d="m36967.305 40813.17c-705.70703 0 -1223.4883 121.46484 -1553.3438 364.39062c-328.54297 242.92578 -492.8125 623.70703 -492.8125 1142.3359c0 517.66406 165.58203 897.96094 496.7539 1140.8906c331.17188 242.92578 851.58203 364.39062 1561.2305 364.39062l1659.7969 0c572.97656 0 971.16797 82.421875 1194.5781 247.26562c224.72266 163.8789 337.08203 455.96875 337.08203 876.26953c0 414.51953 -112.359375 704.1992 -337.08203 869.04297c-223.41016 163.8789 -621.60156 245.82031 -1194.5781 245.82031l-1744.5586 0c-548.0078 0 -935.6875 -73.74609 -1163.0391 -221.23828c-226.03906 -148.45312 -346.9414 -409.21484 -362.71094 -782.28125c-7.8867188 -71.33594 -40.08203 -127.73047 -96.58984 -169.1836c-56.51172 -41.44922 -133.39062 -62.17578 -230.63672 -62.17578c-95.9375 0 -173.47266 21.691406 -232.60938 65.07031c-59.13672 42.414062 -86.078125 99.29297 -80.82031 170.625c23.65625 506.09766 209.60938 877.2383 557.8633 1113.418c349.5703 235.21484 885.75 352.8203 1608.543 352.8203l1744.5586 0c750.3906 0 1299.0547 -126.28125 1645.9922 -378.84766c348.2578 -253.53125 522.3828 -654.5547 522.3828 -1203.0703c0 -547.5469 -174.125 -949.53516 -522.3828 -1205.957c-346.9375 -256.42188 -895.60156 -384.63672 -1645.9922 -384.63672l-1659.7969 0c-532.2383 0 -902.83203 -76.15625 -1111.7852 -228.46484c-207.63672 -152.3125 -311.45703 -422.23047 -311.45703 -809.7578c0 -388.4922 103.16016 -658.8906 309.48438 -811.2031c206.32812 -152.3125 573.6367 -228.46875 1101.9297 -228.46875l1695.2773 0c500.69922 0 856.1797 67.96484 1066.4492 203.88672c210.26562 135.92188 323.28516 374.51172 339.0547 715.7656c7.8867188 70.375 40.08203 126.28516 96.58984 167.73828c56.51172 41.44922 131.41797 62.17578 224.72266 62.17578c101.19141 0 180.69922 -21.207031 238.52344 -63.621094c59.13672 -43.382812 84.76172 -100.25781 76.87891 -170.6289c-24.96875 -477.1797 -202.38281 -826.6289 -532.2383 -1048.3477c-328.54297 -222.67969 -831.8672 -334.02344 -1509.9805 -334.02344z" fill-rule="evenodd"/><path fill="#ff00ff" d="m50404.312 44326.938l0 773.6094c-35.48047 236.17969 -144.5586 425.60156 -327.22656 568.27344c-181.35547 141.70703 -420.53516 244.375 -717.53516 308.0c-295.6875 63.621094 -639.34375 95.43359 -1030.9648 95.43359l-678.1133 0c-448.1289 0 -758.27344 -62.660156 -930.4297 -187.98047c-170.83984 -126.28125 -256.26172 -353.78516 -256.26172 -682.5078c0 -331.61328 85.421875 -560.08203 256.26172 -685.40234c172.15625 -126.28125 482.30078 -189.42578 930.4297 -189.42578zm-2245.254 -1985.3477c-691.2539 0 -1219.5508 77.11719 -1584.8867 231.35938c-365.33984 153.27344 -574.29297 399.09375 -626.8594 737.45703c-15.769531 73.26172 5.2578125 131.58203 63.078125 174.96484c59.140625 43.378906 141.27344 65.07031 246.41016 65.07031c101.19141 0 174.78516 -16.871094 220.77734 -50.61328c47.3125 -34.703125 84.765625 -89.16797 112.36328 -163.39453c56.507812 -192.80078 203.69531 -328.72266 441.5586 -407.77344c239.17969 -80.00781 615.03125 -120.015625 1127.5586 -120.015625l701.7656 0c557.20703 0 951.45703 77.60156 1182.75 232.80469c232.60938 155.20312 352.85547 428.4961 360.73828 819.8789l-2753.8398 0c-625.54297 0 -1086.1602 107.96875 -1381.8477 323.90234c-294.3711 215.9375 -441.5586 554.78125 -441.5586 1016.53516c0 462.71875 145.8711 801.5625 437.6172 1016.53516c293.0586 214.00781 754.9883 321.0078 1385.7891 321.0078l678.1133 0c997.4531 0 1689.3633 -225.08984 2075.7266 -675.27734l0 439.58203c0 157.13281 107.10547 235.69531 321.3164 235.69531c210.26562 0 315.39844 -78.5625 315.39844 -235.69531l0 -2362.754c0 -554.3008 -174.78516 -959.1758 -524.35156 -1214.6367c-348.2539 -256.42188 -900.20703 -384.6328 -1655.8516 -384.6328z" fill-rule="evenodd"/><path fill="#ff00ff" d="m53517.297 42341.59c-214.20703 0 -321.3125 77.11719 -321.3125 231.35938l0 3730.664c0 157.13281 107.10547 235.69531 321.3125 235.69531c210.26953 0 315.40234 -78.5625 315.40234 -235.69531l0 -2598.4531c44.679688 -307.51562 246.40625 -533.5703 605.1719 -678.1719c360.08203 -145.5625 852.89453 -218.34375 1478.4414 -218.34375l339.0547 0c572.97656 0 973.1406 82.90234 1200.4922 248.71094c228.66406 165.8086 342.9961 460.3086 342.9961 883.5039l0 2362.754c0 157.13281 107.10547 235.69531 321.3164 235.69531c210.26562 0 315.39844 -78.5625 315.39844 -235.69531l0 -2362.754c0 -554.3008 -174.78125 -959.1758 -524.35156 -1214.6367c-349.5703 -256.42188 -901.51953 -384.6328 -1655.8516 -384.6328l-339.0547 0c-1005.33984 0 -1699.8789 219.3086 -2083.6133 657.9258l0 -426.5664c0 -154.24219 -105.13281 -231.35938 -315.40234 -231.35938z" fill-rule="evenodd"/><path fill="#ff00ff" d="m65151.47 42808.645l0 2384.4453c0 293.0547 -189.23828 512.84375 -567.71875 659.375c-377.16797 146.52734 -880.4922 219.78906 -1509.9805 219.78906l-459.30078 0c-578.2344 0 -981.6836 -83.38672 -1210.3477 -250.15625c-227.35156 -167.73438 -341.02734 -463.19922 -341.02734 -886.39453l0 -994.84375c0 -420.3047 113.67578 -713.83984 341.02734 -880.6133c228.66406 -167.73438 632.1133 -251.60156 1210.3477 -251.60156zm321.3164 -2430.7148c-214.21094 0 -321.3164 77.11719 -321.3164 231.35547l0 1732.3047l-2537.0 0c-755.64844 0 -1308.9102 128.21094 -1659.7969 384.6328c-350.8828 255.46094 -526.3242 660.33594 -526.3242 1214.6367l0 994.84375c0 553.33203 175.4414 959.1758 526.3242 1217.5273c350.8828 257.38672 904.14844 386.07812 1659.7969 386.07812l459.30078 0c541.4375 0 979.71094 -51.570312 1314.8242 -154.71875c335.11328 -104.11328 589.40625 -258.35156 762.875 -462.71875l0 381.7422c0 157.13281 107.10547 235.69531 321.3164 235.69531c208.94922 0 313.42578 -78.5625 313.42578 -235.69531l0 -5694.328c0 -154.23828 -104.47656 -231.35547 -313.42578 -231.35547z" fill-rule="evenodd"/><path fill="#ff00ff" d="m77685.92 42338.31c-122.07031 0 -212.78906 56.039062 -272.15625 168.125l-1602.0156 3266.5078l-1358.8047 -3195.6562c-52.570312 -127.24609 -167.55469 -190.8711 -344.96875 -190.8711c-186.60938 0 -308.17188 62.179688 -364.6797 186.53516l-1461.2969 3222.418l0 0l-1529.0938 -3288.9336c-49.125 -108.84375 -137.25781 -163.26562 -264.39844 -163.26562c-39.515625 0 -82.80469 5.2578125 -129.85156 15.7734375c-202.38281 47.234375 -268.75 146.52734 -199.10156 297.875l1707.1094 3691.621c56.507812 127.25 179.38281 190.8711 368.625 190.8711c85.421875 0 162.29688 -13.011719 230.63281 -39.039062c68.33594 -26.992188 118.92969 -77.60156 151.78906 -151.83203l1449.8906 -3092.3477l1317.7422 3092.3477c52.570312 127.25 181.35938 190.8711 386.3672 190.8711c186.61719 0 312.1172 -63.621094 376.5078 -190.8711l1870.7188 -3687.2852c72.28125 -144.59766 7.890625 -245.33594 -193.17969 -302.21094c-50.460938 -13.7578125 -97.07031 -20.632812 -139.83594 -20.632812z" fill-rule="evenodd"/><path fill="#ff00ff" d="m81181.55 42808.254c21.835938 0 43.9375 0.12890625 66.30469 0.390625l991.53906 0c578.2344 0 980.3672 82.90234 1206.4062 248.71094c226.03906 165.8086 339.0547 460.3086 339.0547 883.5039l0 212.5586l-4088.375 0l0 -212.5586c0 -426.08594 113.671875 -723.0 341.02344 -890.7344c219.82031 -161.2461 601.1719 -241.8711 1144.0469 -241.8711zm16.59375 -466.85547c-730.25 0 -1266.9453 125.38281 -1610.0859 376.14844c-350.8828 255.46094 -526.3203 663.23047 -526.3203 1223.3125l0 1003.51953c0 551.40625 175.4375 955.3203 526.3203 1211.7422c350.8828 255.46094 904.14844 383.1875 1659.7969 383.1875l991.53906 0c678.1094 0 1194.5781 -88.6875 1549.4062 -266.0625c356.14062 -178.33984 560.4922 -454.04297 613.0547 -827.1094c11.828125 -77.11719 -9.8515625 -136.88672 -65.046875 -179.30078c-53.882812 -43.378906 -133.39062 -65.07031 -238.52344 -65.07031c-103.82031 0 -181.35156 19.28125 -232.60938 57.839844c-49.9375 38.558594 -83.44531 94.953125 -100.53125 169.17969c-43.367188 237.14453 -181.35938 403.91797 -413.96094 500.3164c-232.60938 95.43359 -603.2031 143.15234 -1111.7891 143.15234l-991.53906 0c-578.2344 0 -981.6875 -83.38672 -1210.3516 -250.15625c-227.35156 -167.73438 -341.02344 -460.3086 -341.02344 -877.71875l0 -323.90234l4409.6875 0c208.95312 0 313.4297 -78.56641 313.4297 -235.69922l0 -443.91797c0 -554.3008 -174.78125 -959.1758 -524.35156 -1214.6367c-348.2578 -256.42188 -900.2031 -384.6328 -1655.8516 -384.6328l-991.53906 0c-16.671875 -0.12890625 -33.242188 -0.19140625 -49.710938 -0.19140625z" fill-rule="evenodd"/><path fill="#ff00ff" d="m89700.125 42798.523c572.97656 0 973.7969 83.86719 1202.4609 251.60156c228.66406 167.73438 343.0 463.19922 343.0 886.39453l0 999.1836c0 423.1953 -113.02344 718.66016 -339.0547 886.39453c-226.03906 166.76953 -628.1719 250.15625 -1206.4062 250.15625l-459.3047 0c-621.60156 0 -1122.2969 -71.81641 -1502.0938 -215.45312c-379.79688 -143.63672 -573.6328 -359.08984 -581.52344 -646.3594l0 -1531.3086c0 -296.91016 189.89844 -517.66406 569.6953 -662.2656c379.79688 -145.5625 884.4375 -218.34375 1513.9219 -218.34375zm-2858.3203 -2420.5938c-214.21094 0 -321.3125 77.11719 -321.3125 231.35547l0 5694.328c0 157.13281 107.10156 235.69531 321.3125 235.69531c210.26562 0 315.39844 -78.5625 315.39844 -235.69531l0 -390.41797c181.35938 207.25781 440.25 363.42578 776.6797 468.5c337.73438 105.078125 773.3828 157.61328 1306.9375 157.61328l459.3047 0c755.64844 0 1307.5938 -128.6914 1655.8516 -386.07812c349.5703 -258.35156 524.35156 -664.1953 524.35156 -1217.5273l0 -999.1836c0 -554.2969 -174.78125 -960.1406 -524.35156 -1217.5273c-348.2578 -257.38672 -900.2031 -386.07812 -1655.8516 -386.07812l-459.3047 0c-533.5547 0 -969.2031 53.5 -1306.9375 160.5039c-336.4297 106.03906 -595.3203 261.2422 -776.6797 465.60938l0 -2349.7422c0 -154.23828 -105.13281 -231.35547 -315.39844 -231.35547z" fill-rule="evenodd"/><path fill="#ff00ff" d="m35763.215 52975.434c-529.6094 0 -921.8867 92.54297 -1176.8359 277.6289c-253.63672 185.08984 -380.45312 474.28516 -380.45312 867.59766c0 385.59766 128.13281 670.9414 384.39453 856.02734c256.26172 185.08984 647.22656 277.6328 1172.8945 277.6328l1961.3984 0c375.85156 0 634.08594 52.054688 774.6992 156.16797c141.92969 103.14453 212.89844 294.01562 212.89844 572.6133c0 274.73828 -70.96875 464.16406 -212.89844 568.27344c-140.61328 103.14844 -398.84766 154.72266 -774.6992 154.72266l-1987.0234 0c-314.08594 0 -545.3789 -36.148438 -693.8789 -108.44922c-147.1875 -72.30078 -238.52344 -200.51172 -274.0039 -384.6328c-15.7734375 -77.12109 -49.285156 -134.48047 -100.53516 -172.07422c-49.9375 -38.5625 -125.50391 -57.839844 -226.69531 -57.839844c-109.07422 0 -191.86719 21.6875 -248.3789 65.07031c-56.507812 42.414062 -78.84766 102.17969 -67.01953 179.30078c52.566406 319.08594 210.26562 556.71094 473.09766 712.875c262.83594 155.20312 641.97266 232.8086 1137.4141 232.8086l1987.0234 0c557.20703 0 966.5703 -96.88281 1228.0898 -290.64844c262.83203 -194.72656 394.25 -494.52734 394.25 -899.40625c0 -408.73438 -131.41797 -709.9844 -394.25 -903.7461c-261.51953 -194.73047 -670.8867 -292.09375 -1228.0898 -292.09375l-1961.3984 0c-348.2539 0 -588.7461 -47.714844 -721.47656 -143.15234c-132.73047 -96.39844 -199.09766 -270.8828 -199.09766 -523.4492c0 -263.17188 65.05078 -441.9922 195.15625 -536.46484c131.41406 -95.43359 373.22266 -143.15234 725.41797 -143.15234l1900.2891 0c286.48828 0 497.41016 31.8125 632.76953 95.43359c135.36328 63.625 217.4961 178.33984 246.40625 344.14844c19.714844 74.22656 54.539062 130.6211 104.47656 169.17969c51.253906 38.5625 127.47656 57.839844 228.66797 57.839844c105.13281 0 186.60938 -21.207031 244.4336 -63.621094c59.13672 -43.382812 80.16406 -103.63281 63.08203 -180.75c-99.87891 -591.89453 -606.4922 -887.83984 -1519.8359 -887.83984z" fill-rule="evenodd"/><path fill="#ff00ff" d="m43206.26 53450.773c21.839844 0 43.941406 0.12890625 66.30078 0.390625l991.54297 0c578.2344 0 980.3672 82.90234 1206.4062 248.71094c226.03516 165.8086 339.0547 460.3086 339.0547 883.5039l0 212.5586l-4088.379 0l0 -212.5586c0 -426.08594 113.67578 -722.9961 341.02734 -890.7344c219.82031 -161.2461 601.1719 -241.8711 1144.0469 -241.8711zm16.59375 -466.85547c-730.2461 0 -1266.9414 125.38281 -1610.0859 376.14844c-350.8828 255.46094 -526.3242 663.23047 -526.3242 1223.3125l0 1003.51953c0 551.40625 175.4414 955.3203 526.3242 1211.7422c350.8828 255.46094 904.14844 383.1914 1659.793 383.1914l991.54297 0c678.1094 0 1194.5781 -88.6875 1549.4023 -266.0664c356.14062 -178.33594 560.4922 -454.03906 613.0586 -827.10547c11.828125 -77.12109 -9.855469 -136.88672 -65.05078 -179.30469c-53.878906 -43.378906 -133.38672 -65.07031 -238.51953 -65.07031c-103.82031 0 -181.35547 19.28125 -232.60938 57.839844c-49.9375 38.558594 -83.44922 94.953125 -100.53516 169.17969c-43.367188 237.14453 -181.35547 403.91406 -413.96094 500.3164c-232.60938 95.43359 -603.2031 143.15234 -1111.7852 143.15234l-991.54297 0c-578.2344 0 -981.6836 -83.38672 -1210.3477 -250.15625c-227.35156 -167.73438 -341.02734 -460.3086 -341.02734 -877.71875l0 -323.90234l4409.6914 0c208.95312 0 313.4297 -78.56641 313.4297 -235.69922l0 -443.91797c0 -554.2969 -174.78516 -959.1758 -524.35156 -1214.6367c-348.2539 -256.42188 -900.20703 -384.6328 -1655.8516 -384.6328l-991.54297 0c-16.667969 -0.12890625 -33.234375 -0.19140625 -49.70703 -0.19140625z" fill-rule="evenodd"/><path fill="#ff00ff" d="m48866.52 52984.11c-214.21094 0 -321.3125 77.11719 -321.3125 231.35938l0 3730.664c0 157.13281 107.10156 235.69922 321.3125 235.69922c210.26562 0 315.39844 -78.56641 315.39844 -235.69922l0 -2118.3828c40.742188 -441.5078 258.89062 -781.3164 654.45703 -1019.4258c395.5664 -238.10547 952.77344 -357.16016 1671.6211 -357.16016c212.89453 0 319.34375 -78.56641 319.34375 -235.69531c0 -154.24219 -106.44922 -231.35938 -319.34375 -231.35938c-545.3789 0 -1017.16406 78.5625 -1415.3594 235.69531c-396.8789 157.13281 -700.4492 383.67188 -910.71875 679.6172l0 -683.9531c0 -154.24219 -105.13281 -231.35938 -315.39844 -231.35938z" fill-rule="evenodd"/><path fill="#ff00ff" d="m52629.56 52979.93c-46.566406 0 -97.60156 8.621094 -153.09766 25.867188c-202.38281 56.875 -260.86328 157.61328 -175.4414 302.21484l2247.2266 3691.625c72.27734 121.46094 197.125 182.19531 374.53516 182.19531c85.421875 0 160.33203 -11.5703125 224.72266 -34.70703c64.39453 -24.097656 118.93359 -71.81641 163.61719 -143.15234l2402.9531 -3687.2852c89.36328 -141.70703 34.828125 -245.33984 -163.61328 -310.89062c-53.070312 -16.683594 -103.08203 -25.023438 -150.03125 -25.023438c-34.42578 0 -67.21094 4.484375 -98.34375 13.457031c-72.28125 20.242188 -130.76172 64.10547 -175.4414 131.58594l-2186.0547 3375.4258l0 0l-2052.1406 -3371.0898c-60.367188 -100.14844 -146.66406 -150.22266 -258.89062 -150.22266z" fill-rule="evenodd"/><path fill="#ff00ff" d="m59356.28 51354.473c-278.60156 0 -417.90234 101.69922 -417.90234 305.10547l0 200.99219c0 210.15234 139.30078 315.22656 417.90234 315.22656l272.03516 0c270.71875 0 406.07812 -105.07422 406.07812 -315.22656l0 -200.99219c0 -203.40625 -135.35938 -305.10547 -406.07812 -305.10547zm137.98828 1629.6367c-214.20703 0 -321.3125 77.11719 -321.3125 231.35938l0 3730.664c0 157.13281 107.10547 235.69922 321.3125 235.69922c210.26953 0 315.40234 -78.56641 315.40234 -235.69922l0 -3730.664c0 -154.24219 -105.13281 -231.35938 -315.40234 -231.35938z" fill-rule="evenodd"/><path fill="#ff00ff" d="m64048.145 52983.918c-733.9883 0 -1271.9102 125.38281 -1613.7695 376.14844c-348.2539 255.46094 -522.3828 660.33984 -522.3828 1214.6367l0 1003.51953c0 553.33594 175.4414 959.1758 526.3242 1217.5273c350.8828 257.38672 904.14844 386.08203 1659.7969 386.08203l991.53906 0c594.0039 0 1047.3945 -73.74609 1360.1602 -221.23828c312.77344 -148.45703 499.39062 -379.8164 559.83594 -694.0781c11.828125 -77.11719 -11.828125 -136.88672 -70.96094 -179.30469c-57.828125 -43.378906 -139.30469 -65.06641 -244.4375 -65.06641c-95.92969 0 -168.21094 18.796875 -216.83594 56.390625c-48.625 36.632812 -84.765625 90.61719 -108.421875 161.95312c-44.679688 174.48438 -164.26562 297.39453 -358.76562 368.72656c-193.17969 70.375 -500.03906 105.55859 -920.5742 105.55859l-991.53906 0c-578.2344 0 -981.6836 -83.38672 -1210.3516 -250.15625c-227.34766 -167.73438 -341.02344 -463.19922 -341.02344 -886.39453l0 -1003.51953c0 -427.05078 113.67578 -722.5156 341.02344 -886.39453c219.67578 -158.36328 600.65625 -237.54297 1142.9414 -237.54297c22.199219 0 44.66797 0.1328125 67.41016 0.3984375l991.53906 0c420.53516 0 727.39453 35.66797 920.5742 107.00391c194.5 70.37109 314.08594 191.35547 358.76562 362.9453c23.65625 71.33594 59.796875 125.80078 108.421875 163.39844c48.625 36.628906 120.89844 54.945312 216.83594 54.945312c105.13281 0 186.61719 -20.722656 244.4375 -62.17578c59.132812 -41.453125 82.78906 -102.18359 70.96094 -182.19531c-60.445312 -314.26172 -247.0625 -544.65625 -559.83594 -691.1875c-312.76562 -146.52734 -766.15625 -219.78906 -1360.1602 -219.78906l-991.53906 0c-16.757812 -0.12890625 -33.414062 -0.19140625 -49.96875 -0.19140625z" fill-rule="evenodd"/><path fill="#ff00ff" d="m70947.42 53450.773c21.835938 0 43.9375 0.12890625 66.30469 0.390625l991.53906 0c578.2344 0 980.3672 82.90234 1206.4062 248.71094c226.03125 165.8086 339.0547 460.3086 339.0547 883.5039l0 212.5586l-4088.3828 0l0 -212.5586c0 -426.08594 113.67969 -722.9961 341.03125 -890.7344c219.82031 -161.2461 601.1719 -241.8711 1144.0469 -241.8711zm16.59375 -466.85547c-730.25 0 -1266.9453 125.38281 -1610.0859 376.14844c-350.8828 255.46094 -526.3281 663.23047 -526.3281 1223.3125l0 1003.51953c0 551.40625 175.44531 955.3203 526.3281 1211.7422c350.8828 255.46094 904.14844 383.1914 1659.7969 383.1914l991.53906 0c678.1094 0 1194.5781 -88.6875 1549.3984 -266.0664c356.14062 -178.33594 560.5 -454.03906 613.0625 -827.10547c11.828125 -77.12109 -9.859375 -136.88672 -65.05469 -179.30469c-53.875 -43.378906 -133.38281 -65.07031 -238.51562 -65.07031c-103.82031 0 -181.35938 19.28125 -232.60938 57.839844c-49.9375 38.558594 -83.453125 94.953125 -100.53906 169.17969c-43.367188 237.14453 -181.35156 403.91406 -413.96094 500.3164c-232.60938 95.43359 -603.2031 143.15234 -1111.7812 143.15234l-991.53906 0c-578.2344 0 -981.6875 -83.38672 -1210.3516 -250.15625c-227.35156 -167.73438 -341.03125 -460.3086 -341.03125 -877.71875l0 -323.90234l4409.6953 0c208.95312 0 313.4297 -78.56641 313.4297 -235.69922l0 -443.91797c0 -554.2969 -174.78906 -959.1758 -524.35156 -1214.6367c-348.2578 -256.42188 -900.21094 -384.6328 -1655.8516 -384.6328l-991.53906 0c-16.671875 -0.12890625 -33.242188 -0.19140625 -49.710938 -0.19140625z" fill-rule="evenodd"/><path fill="#ff00ff" d="m77565.7 52975.434c-529.6094 0 -921.8828 92.54297 -1176.8359 277.6289c-253.63281 185.08984 -380.45312 474.28516 -380.45312 867.59766c0 385.59766 128.13281 670.9414 384.39844 856.02734c256.2578 185.08984 647.22656 277.6328 1172.8906 277.6328l1961.3984 0c375.85156 0 634.08594 52.054688 774.7031 156.16797c141.92969 103.14453 212.89844 294.01562 212.89844 572.6133c0 274.73828 -70.96875 464.16406 -212.89844 568.27344c-140.61719 103.14844 -398.85156 154.72266 -774.7031 154.72266l-1987.0234 0c-314.08594 0 -545.375 -36.148438 -693.875 -108.44922c-147.1875 -72.30078 -238.52344 -200.51172 -274.0078 -384.6328c-15.7734375 -77.12109 -49.28125 -134.48047 -100.53125 -172.07422c-49.9375 -38.5625 -125.50781 -57.839844 -226.69531 -57.839844c-109.078125 0 -191.86719 21.6875 -248.38281 65.07031c-56.507812 42.414062 -78.84375 102.17969 -67.015625 179.30078c52.5625 319.08594 210.26562 556.71094 473.09375 712.875c262.83594 155.20312 641.97656 232.8086 1137.4141 232.8086l1987.0234 0c557.21094 0 966.5703 -96.88281 1228.0938 -290.64844c262.82812 -194.72656 394.25 -494.52734 394.25 -899.40625c0 -408.73438 -131.42188 -709.9844 -394.25 -903.7461c-261.52344 -194.73047 -670.8906 -292.09375 -1228.0938 -292.09375l-1961.3984 0c-348.25 0 -588.7422 -47.714844 -721.47656 -143.15234c-132.72656 -96.39844 -199.09375 -270.8828 -199.09375 -523.4492c0 -263.17188 65.046875 -441.9922 195.15625 -536.46484c131.41406 -95.43359 373.21875 -143.15234 725.41406 -143.15234l1900.2891 0c286.4922 0 497.41406 31.8125 632.77344 95.43359c135.35938 63.625 217.49219 178.33984 246.40625 344.14844c19.710938 74.22656 54.539062 130.6211 104.47656 169.17969c51.25 38.5625 127.47656 57.839844 228.66406 57.839844c105.13281 0 186.60938 -21.207031 244.4375 -63.621094c59.132812 -43.382812 80.16406 -103.63281 63.078125 -180.75c-99.875 -591.89453 -606.4922 -887.83984 -1519.8359 -887.83984z" fill-rule="evenodd"/><path stroke="#000000" stroke-width="1.0" stroke-linejoin="round" stroke-linecap="butt" d="m23736.666 40711.953c-278.60547 0 -417.90625 101.69922 -417.90625 305.10547l0 200.99219c0 210.15234 139.30078 315.22656 417.90625 315.22656l272.03125 0c270.7207 0 406.07812 -105.07422 406.07812 -315.22656l0 -200.99219c0 -203.40625 -135.35742 -305.10547 -406.07812 -305.10547zm137.98633 1629.6367c-214.20703 0 -321.31445 77.11719 -321.31445 231.35938l0 3730.664c0 157.13281 107.10742 235.69531 321.31445 235.69531c210.26562 0 315.4004 -78.5625 315.4004 -235.69531l0 -3730.664c0 -154.24219 -105.134766 -231.35938 -315.4004 -231.35938z" fill-rule="evenodd"/><path stroke="#000000" stroke-width="1.0" stroke-linejoin="round" stroke-linecap="butt" d="m28759.625 41280.09c14.611328 0 29.31836 0.046875 44.125 0.13671875l1466.6113 0c463.9004 0 833.18164 45.308594 1107.8438 135.92578c274.66016 89.65234 472.4414 235.21484 593.3457 436.6914c120.9043 201.47266 181.35547 472.35547 181.35547 812.64844l0 2021.5c0 343.1836 -60.45117 615.5117 -181.35547 816.9844c-120.90234 201.47656 -318.6836 346.5586 -593.3457 435.2461c-274.66016 88.6875 -643.9414 133.03125 -1107.8438 133.03125l-1452.8125 0c-469.1582 0 -841.06836 -44.34375 -1115.7285 -133.03125c-274.6621 -88.6875 -472.44336 -233.76953 -593.34766 -435.2461c-120.90234 -201.47266 -181.35547 -473.8047 -181.35547 -816.9844l0 -2025.8398c0 -343.1836 60.453125 -615.9922 181.35547 -818.4336c120.90234 -203.40234 317.3711 -348.48438 589.4043 -435.2422c264.62305 -84.92578 618.53906 -127.38672 1061.748 -127.38672zm-5.658203 -467.08594c-841.9219 0 -1460.7285 144.65625 -1856.418 433.96484c-403.45117 294.01953 -605.1738 765.41406 -605.1738 1414.1836l0 2025.8398c0 642.9844 201.72266 1112.4492 605.1738 1408.3984c403.44922 295.9453 1043.4512 443.91797 1920.0 443.91797l1452.8125 0c875.2363 0 1513.9219 -147.97266 1916.0566 -443.91797c402.13477 -295.94922 603.2031 -765.41406 603.2031 -1408.3984l0 -2021.5c0 -642.02344 -201.06836 -1111.0078 -603.2031 -1406.9531c-402.13477 -296.91016 -1040.8203 -445.3672 -1916.0566 -445.3672l-1466.6113 0c-16.68164 -0.109375 -33.27539 -0.16796875 -49.783203 -0.16796875z" fill-rule="evenodd"/><path stroke="#000000" stroke-width="1.0" stroke-linejoin="round" stroke-linecap="butt" d="m36967.305 40813.17c-705.70703 0 -1223.4883 121.46484 -1553.3438 364.39062c-328.54297 242.92578 -492.8125 623.70703 -492.8125 1142.3359c0 517.66406 165.58203 897.96094 496.7539 1140.8906c331.17188 242.92578 851.58203 364.39062 1561.2305 364.39062l1659.7969 0c572.97656 0 971.16797 82.421875 1194.5781 247.26562c224.72266 163.8789 337.08203 455.96875 337.08203 876.26953c0 414.51953 -112.359375 704.1992 -337.08203 869.04297c-223.41016 163.8789 -621.60156 245.82031 -1194.5781 245.82031l-1744.5586 0c-548.0078 0 -935.6875 -73.74609 -1163.0391 -221.23828c-226.03906 -148.45312 -346.9414 -409.21484 -362.71094 -782.28125c-7.8867188 -71.33594 -40.08203 -127.73047 -96.58984 -169.1836c-56.51172 -41.44922 -133.39062 -62.17578 -230.63672 -62.17578c-95.9375 0 -173.47266 21.691406 -232.60938 65.07031c-59.13672 42.414062 -86.078125 99.29297 -80.82031 170.625c23.65625 506.09766 209.60938 877.2383 557.8633 1113.418c349.5703 235.21484 885.75 352.8203 1608.543 352.8203l1744.5586 0c750.3906 0 1299.0547 -126.28125 1645.9922 -378.84766c348.2578 -253.53125 522.3828 -654.5547 522.3828 -1203.0703c0 -547.5469 -174.125 -949.53516 -522.3828 -1205.957c-346.9375 -256.42188 -895.60156 -384.63672 -1645.9922 -384.63672l-1659.7969 0c-532.2383 0 -902.83203 -76.15625 -1111.7852 -228.46484c-207.63672 -152.3125 -311.45703 -422.23047 -311.45703 -809.7578c0 -388.4922 103.16016 -658.8906 309.48438 -811.2031c206.32812 -152.3125 573.6367 -228.46875 1101.9297 -228.46875l1695.2773 0c500.69922 0 856.1797 67.96484 1066.4492 203.88672c210.26562 135.92188 323.28516 374.51172 339.0547 715.7656c7.8867188 70.375 40.08203 126.28516 96.58984 167.73828c56.51172 41.44922 131.41797 62.17578 224.72266 62.17578c101.19141 0 180.69922 -21.207031 238.52344 -63.621094c59.13672 -43.382812 84.76172 -100.25781 76.87891 -170.6289c-24.96875 -477.1797 -202.38281 -826.6289 -532.2383 -1048.3477c-328.54297 -222.67969 -831.8672 -334.02344 -1509.9805 -334.02344z" fill-rule="evenodd"/><path stroke="#000000" stroke-width="1.0" stroke-linejoin="round" stroke-linecap="butt" d="m50404.312 44326.938l0 773.6094c-35.48047 236.17969 -144.5586 425.60156 -327.22656 568.27344c-181.35547 141.70703 -420.53516 244.375 -717.53516 308.0c-295.6875 63.621094 -639.34375 95.43359 -1030.9648 95.43359l-678.1133 0c-448.1289 0 -758.27344 -62.660156 -930.4297 -187.98047c-170.83984 -126.28125 -256.26172 -353.78516 -256.26172 -682.5078c0 -331.61328 85.421875 -560.08203 256.26172 -685.40234c172.15625 -126.28125 482.30078 -189.42578 930.4297 -189.42578zm-2245.254 -1985.3477c-691.2539 0 -1219.5508 77.11719 -1584.8867 231.35938c-365.33984 153.27344 -574.29297 399.09375 -626.8594 737.45703c-15.769531 73.26172 5.2578125 131.58203 63.078125 174.96484c59.140625 43.378906 141.27344 65.07031 246.41016 65.07031c101.19141 0 174.78516 -16.871094 220.77734 -50.61328c47.3125 -34.703125 84.765625 -89.16797 112.36328 -163.39453c56.507812 -192.80078 203.69531 -328.72266 441.5586 -407.77344c239.17969 -80.00781 615.03125 -120.015625 1127.5586 -120.015625l701.7656 0c557.20703 0 951.45703 77.60156 1182.75 232.80469c232.60938 155.20312 352.85547 428.4961 360.73828 819.8789l-2753.8398 0c-625.54297 0 -1086.1602 107.96875 -1381.8477 323.90234c-294.3711 215.9375 -441.5586 554.78125 -441.5586 1016.53516c0 462.71875 145.8711 801.5625 437.6172 1016.53516c293.0586 214.00781 754.9883 321.0078 1385.7891 321.0078l678.1133 0c997.4531 0 1689.3633 -225.08984 2075.7266 -675.27734l0 439.58203c0 157.13281 107.10547 235.69531 321.3164 235.69531c210.26562 0 315.39844 -78.5625 315.39844 -235.69531l0 -2362.754c0 -554.3008 -174.78516 -959.1758 -524.35156 -1214.6367c-348.2539 -256.42188 -900.20703 -384.6328 -1655.8516 -384.6328z" fill-rule="evenodd"/><path stroke="#000000" stroke-width="1.0" stroke-linejoin="round" stroke-linecap="butt" d="m53517.297 42341.59c-214.20703 0 -321.3125 77.11719 -321.3125 231.35938l0 3730.664c0 157.13281 107.10547 235.69531 321.3125 235.69531c210.26953 0 315.40234 -78.5625 315.40234 -235.69531l0 -2598.4531c44.679688 -307.51562 246.40625 -533.5703 605.1719 -678.1719c360.08203 -145.5625 852.89453 -218.34375 1478.4414 -218.34375l339.0547 0c572.97656 0 973.1406 82.90234 1200.4922 248.71094c228.66406 165.8086 342.9961 460.3086 342.9961 883.5039l0 2362.754c0 157.13281 107.10547 235.69531 321.3164 235.69531c210.26562 0 315.39844 -78.5625 315.39844 -235.69531l0 -2362.754c0 -554.3008 -174.78125 -959.1758 -524.35156 -1214.6367c-349.5703 -256.42188 -901.51953 -384.6328 -1655.8516 -384.6328l-339.0547 0c-1005.33984 0 -1699.8789 219.3086 -2083.6133 657.9258l0 -426.5664c0 -154.24219 -105.13281 -231.35938 -315.40234 -231.35938z" fill-rule="evenodd"/><path stroke="#000000" stroke-width="1.0" stroke-linejoin="round" stroke-linecap="butt" d="m65151.47 42808.645l0 2384.4453c0 293.0547 -189.23828 512.84375 -567.71875 659.375c-377.16797 146.52734 -880.4922 219.78906 -1509.9805 219.78906l-459.30078 0c-578.2344 0 -981.6836 -83.38672 -1210.3477 -250.15625c-227.35156 -167.73438 -341.02734 -463.19922 -341.02734 -886.39453l0 -994.84375c0 -420.3047 113.67578 -713.83984 341.02734 -880.6133c228.66406 -167.73438 632.1133 -251.60156 1210.3477 -251.60156zm321.3164 -2430.7148c-214.21094 0 -321.3164 77.11719 -321.3164 231.35547l0 1732.3047l-2537.0 0c-755.64844 0 -1308.9102 128.21094 -1659.7969 384.6328c-350.8828 255.46094 -526.3242 660.33594 -526.3242 1214.6367l0 994.84375c0 553.33203 175.4414 959.1758 526.3242 1217.5273c350.8828 257.38672 904.14844 386.07812 1659.7969 386.07812l459.30078 0c541.4375 0 979.71094 -51.570312 1314.8242 -154.71875c335.11328 -104.11328 589.40625 -258.35156 762.875 -462.71875l0 381.7422c0 157.13281 107.10547 235.69531 321.3164 235.69531c208.94922 0 313.42578 -78.5625 313.42578 -235.69531l0 -5694.328c0 -154.23828 -104.47656 -231.35547 -313.42578 -231.35547z" fill-rule="evenodd"/><path stroke="#000000" stroke-width="1.0" stroke-linejoin="round" stroke-linecap="butt" d="m77685.92 42338.31c-122.07031 0 -212.78906 56.039062 -272.15625 168.125l-1602.0156 3266.5078l-1358.8047 -3195.6562c-52.570312 -127.24609 -167.55469 -190.8711 -344.96875 -190.8711c-186.60938 0 -308.17188 62.179688 -364.6797 186.53516l-1461.2969 3222.418l0 0l-1529.0938 -3288.9336c-49.125 -108.84375 -137.25781 -163.26562 -264.39844 -163.26562c-39.515625 0 -82.80469 5.2578125 -129.85156 15.7734375c-202.38281 47.234375 -268.75 146.52734 -199.10156 297.875l1707.1094 3691.621c56.507812 127.25 179.38281 190.8711 368.625 190.8711c85.421875 0 162.29688 -13.011719 230.63281 -39.039062c68.33594 -26.992188 118.92969 -77.60156 151.78906 -151.83203l1449.8906 -3092.3477l1317.7422 3092.3477c52.570312 127.25 181.35938 190.8711 386.3672 190.8711c186.61719 0 312.1172 -63.621094 376.5078 -190.8711l1870.7188 -3687.2852c72.28125 -144.59766 7.890625 -245.33594 -193.17969 -302.21094c-50.460938 -13.7578125 -97.07031 -20.632812 -139.83594 -20.632812z" fill-rule="evenodd"/><path stroke="#000000" stroke-width="1.0" stroke-linejoin="round" stroke-linecap="butt" d="m81181.55 42808.254c21.835938 0 43.9375 0.12890625 66.30469 0.390625l991.53906 0c578.2344 0 980.3672 82.90234 1206.4062 248.71094c226.03906 165.8086 339.0547 460.3086 339.0547 883.5039l0 212.5586l-4088.375 0l0 -212.5586c0 -426.08594 113.671875 -723.0 341.02344 -890.7344c219.82031 -161.2461 601.1719 -241.8711 1144.0469 -241.8711zm16.59375 -466.85547c-730.25 0 -1266.9453 125.38281 -1610.0859 376.14844c-350.8828 255.46094 -526.3203 663.23047 -526.3203 1223.3125l0 1003.51953c0 551.40625 175.4375 955.3203 526.3203 1211.7422c350.8828 255.46094 904.14844 383.1875 1659.7969 383.1875l991.53906 0c678.1094 0 1194.5781 -88.6875 1549.4062 -266.0625c356.14062 -178.33984 560.4922 -454.04297 613.0547 -827.1094c11.828125 -77.11719 -9.8515625 -136.88672 -65.046875 -179.30078c-53.882812 -43.378906 -133.39062 -65.07031 -238.52344 -65.07031c-103.82031 0 -181.35156 19.28125 -232.60938 57.839844c-49.9375 38.558594 -83.44531 94.953125 -100.53125 169.17969c-43.367188 237.14453 -181.35938 403.91797 -413.96094 500.3164c-232.60938 95.43359 -603.2031 143.15234 -1111.7891 143.15234l-991.53906 0c-578.2344 0 -981.6875 -83.38672 -1210.3516 -250.15625c-227.35156 -167.73438 -341.02344 -460.3086 -341.02344 -877.71875l0 -323.90234l4409.6875 0c208.95312 0 313.4297 -78.56641 313.4297 -235.69922l0 -443.91797c0 -554.3008 -174.78125 -959.1758 -524.35156 -1214.6367c-348.2578 -256.42188 -900.2031 -384.6328 -1655.8516 -384.6328l-991.53906 0c-16.671875 -0.12890625 -33.242188 -0.19140625 -49.710938 -0.19140625z" fill-rule="evenodd"/><path stroke="#000000" stroke-width="1.0" stroke-linejoin="round" stroke-linecap="butt" d="m89700.125 42798.523c572.97656 0 973.7969 83.86719 1202.4609 251.60156c228.66406 167.73438 343.0 463.19922 343.0 886.39453l0 999.1836c0 423.1953 -113.02344 718.66016 -339.0547 886.39453c-226.03906 166.76953 -628.1719 250.15625 -1206.4062 250.15625l-459.3047 0c-621.60156 0 -1122.2969 -71.81641 -1502.0938 -215.45312c-379.79688 -143.63672 -573.6328 -359.08984 -581.52344 -646.3594l0 -1531.3086c0 -296.91016 189.89844 -517.66406 569.6953 -662.2656c379.79688 -145.5625 884.4375 -218.34375 1513.9219 -218.34375zm-2858.3203 -2420.5938c-214.21094 0 -321.3125 77.11719 -321.3125 231.35547l0 5694.328c0 157.13281 107.10156 235.69531 321.3125 235.69531c210.26562 0 315.39844 -78.5625 315.39844 -235.69531l0 -390.41797c181.35938 207.25781 440.25 363.42578 776.6797 468.5c337.73438 105.078125 773.3828 157.61328 1306.9375 157.61328l459.3047 0c755.64844 0 1307.5938 -128.6914 1655.8516 -386.07812c349.5703 -258.35156 524.35156 -664.1953 524.35156 -1217.5273l0 -999.1836c0 -554.2969 -174.78125 -960.1406 -524.35156 -1217.5273c-348.2578 -257.38672 -900.2031 -386.07812 -1655.8516 -386.07812l-459.3047 0c-533.5547 0 -969.2031 53.5 -1306.9375 160.5039c-336.4297 106.03906 -595.3203 261.2422 -776.6797 465.60938l0 -2349.7422c0 -154.23828 -105.13281 -231.35547 -315.39844 -231.35547z" fill-rule="evenodd"/><path stroke="#000000" stroke-width="1.0" stroke-linejoin="round" stroke-linecap="butt" d="m35763.215 52975.434c-529.6094 0 -921.8867 92.54297 -1176.8359 277.6289c-253.63672 185.08984 -380.45312 474.28516 -380.45312 867.59766c0 385.59766 128.13281 670.9414 384.39453 856.02734c256.26172 185.08984 647.22656 277.6328 1172.8945 277.6328l1961.3984 0c375.85156 0 634.08594 52.054688 774.6992 156.16797c141.92969 103.14453 212.89844 294.01562 212.89844 572.6133c0 274.73828 -70.96875 464.16406 -212.89844 568.27344c-140.61328 103.14844 -398.84766 154.72266 -774.6992 154.72266l-1987.0234 0c-314.08594 0 -545.3789 -36.148438 -693.8789 -108.44922c-147.1875 -72.30078 -238.52344 -200.51172 -274.0039 -384.6328c-15.7734375 -77.12109 -49.285156 -134.48047 -100.53516 -172.07422c-49.9375 -38.5625 -125.50391 -57.839844 -226.69531 -57.839844c-109.07422 0 -191.86719 21.6875 -248.3789 65.07031c-56.507812 42.414062 -78.84766 102.17969 -67.01953 179.30078c52.566406 319.08594 210.26562 556.71094 473.09766 712.875c262.83594 155.20312 641.97266 232.8086 1137.4141 232.8086l1987.0234 0c557.20703 0 966.5703 -96.88281 1228.0898 -290.64844c262.83203 -194.72656 394.25 -494.52734 394.25 -899.40625c0 -408.73438 -131.41797 -709.9844 -394.25 -903.7461c-261.51953 -194.73047 -670.8867 -292.09375 -1228.0898 -292.09375l-1961.3984 0c-348.2539 0 -588.7461 -47.714844 -721.47656 -143.15234c-132.73047 -96.39844 -199.09766 -270.8828 -199.09766 -523.4492c0 -263.17188 65.05078 -441.9922 195.15625 -536.46484c131.41406 -95.43359 373.22266 -143.15234 725.41797 -143.15234l1900.2891 0c286.48828 0 497.41016 31.8125 632.76953 95.43359c135.36328 63.625 217.4961 178.33984 246.40625 344.14844c19.714844 74.22656 54.539062 130.6211 104.47656 169.17969c51.253906 38.5625 127.47656 57.839844 228.66797 57.839844c105.13281 0 186.60938 -21.207031 244.4336 -63.621094c59.13672 -43.382812 80.16406 -103.63281 63.08203 -180.75c-99.87891 -591.89453 -606.4922 -887.83984 -1519.8359 -887.83984z" fill-rule="evenodd"/><path stroke="#000000" stroke-width="1.0" stroke-linejoin="round" stroke-linecap="butt" d="m43206.26 53450.773c21.839844 0 43.941406 0.12890625 66.30078 0.390625l991.54297 0c578.2344 0 980.3672 82.90234 1206.4062 248.71094c226.03516 165.8086 339.0547 460.3086 339.0547 883.5039l0 212.5586l-4088.379 0l0 -212.5586c0 -426.08594 113.67578 -722.9961 341.02734 -890.7344c219.82031 -161.2461 601.1719 -241.8711 1144.0469 -241.8711zm16.59375 -466.85547c-730.2461 0 -1266.9414 125.38281 -1610.0859 376.14844c-350.8828 255.46094 -526.3242 663.23047 -526.3242 1223.3125l0 1003.51953c0 551.40625 175.4414 955.3203 526.3242 1211.7422c350.8828 255.46094 904.14844 383.1914 1659.793 383.1914l991.54297 0c678.1094 0 1194.5781 -88.6875 1549.4023 -266.0664c356.14062 -178.33594 560.4922 -454.03906 613.0586 -827.10547c11.828125 -77.12109 -9.855469 -136.88672 -65.05078 -179.30469c-53.878906 -43.378906 -133.38672 -65.07031 -238.51953 -65.07031c-103.82031 0 -181.35547 19.28125 -232.60938 57.839844c-49.9375 38.558594 -83.44922 94.953125 -100.53516 169.17969c-43.367188 237.14453 -181.35547 403.91406 -413.96094 500.3164c-232.60938 95.43359 -603.2031 143.15234 -1111.7852 143.15234l-991.54297 0c-578.2344 0 -981.6836 -83.38672 -1210.3477 -250.15625c-227.35156 -167.73438 -341.02734 -460.3086 -341.02734 -877.71875l0 -323.90234l4409.6914 0c208.95312 0 313.4297 -78.56641 313.4297 -235.69922l0 -443.91797c0 -554.2969 -174.78516 -959.1758 -524.35156 -1214.6367c-348.2539 -256.42188 -900.20703 -384.6328 -1655.8516 -384.6328l-991.54297 0c-16.667969 -0.12890625 -33.234375 -0.19140625 -49.70703 -0.19140625z" fill-rule="evenodd"/><path stroke="#000000" stroke-width="1.0" stroke-linejoin="round" stroke-linecap="butt" d="m48866.52 52984.11c-214.21094 0 -321.3125 77.11719 -321.3125 231.35938l0 3730.664c0 157.13281 107.10156 235.69922 321.3125 235.69922c210.26562 0 315.39844 -78.56641 315.39844 -235.69922l0 -2118.3828c40.742188 -441.5078 258.89062 -781.3164 654.45703 -1019.4258c395.5664 -238.10547 952.77344 -357.16016 1671.6211 -357.16016c212.89453 0 319.34375 -78.56641 319.34375 -235.69531c0 -154.24219 -106.44922 -231.35938 -319.34375 -231.35938c-545.3789 0 -1017.16406 78.5625 -1415.3594 235.69531c-396.8789 157.13281 -700.4492 383.67188 -910.71875 679.6172l0 -683.9531c0 -154.24219 -105.13281 -231.35938 -315.39844 -231.35938z" fill-rule="evenodd"/><path stroke="#000000" stroke-width="1.0" stroke-linejoin="round" stroke-linecap="butt" d="m52629.56 52979.93c-46.566406 0 -97.60156 8.621094 -153.09766 25.867188c-202.38281 56.875 -260.86328 157.61328 -175.4414 302.21484l2247.2266 3691.625c72.27734 121.46094 197.125 182.19531 374.53516 182.19531c85.421875 0 160.33203 -11.5703125 224.72266 -34.70703c64.39453 -24.097656 118.93359 -71.81641 163.61719 -143.15234l2402.9531 -3687.2852c89.36328 -141.70703 34.828125 -245.33984 -163.61328 -310.89062c-53.070312 -16.683594 -103.08203 -25.023438 -150.03125 -25.023438c-34.42578 0 -67.21094 4.484375 -98.34375 13.457031c-72.28125 20.242188 -130.76172 64.10547 -175.4414 131.58594l-2186.0547 3375.4258l0 0l-2052.1406 -3371.0898c-60.367188 -100.14844 -146.66406 -150.22266 -258.89062 -150.22266z" fill-rule="evenodd"/><path stroke="#000000" stroke-width="1.0" stroke-linejoin="round" stroke-linecap="butt" d="m59356.28 51354.473c-278.60156 0 -417.90234 101.69922 -417.90234 305.10547l0 200.99219c0 210.15234 139.30078 315.22656 417.90234 315.22656l272.03516 0c270.71875 0 406.07812 -105.07422 406.07812 -315.22656l0 -200.99219c0 -203.40625 -135.35938 -305.10547 -406.07812 -305.10547zm137.98828 1629.6367c-214.20703 0 -321.3125 77.11719 -321.3125 231.35938l0 3730.664c0 157.13281 107.10547 235.69922 321.3125 235.69922c210.26953 0 315.40234 -78.56641 315.40234 -235.69922l0 -3730.664c0 -154.24219 -105.13281 -231.35938 -315.40234 -231.35938z" fill-rule="evenodd"/><path stroke="#000000" stroke-width="1.0" stroke-linejoin="round" stroke-linecap="butt" d="m64048.145 52983.918c-733.9883 0 -1271.9102 125.38281 -1613.7695 376.14844c-348.2539 255.46094 -522.3828 660.33984 -522.3828 1214.6367l0 1003.51953c0 553.33594 175.4414 959.1758 526.3242 1217.5273c350.8828 257.38672 904.14844 386.08203 1659.7969 386.08203l991.53906 0c594.0039 0 1047.3945 -73.74609 1360.1602 -221.23828c312.77344 -148.45703 499.39062 -379.8164 559.83594 -694.0781c11.828125 -77.11719 -11.828125 -136.88672 -70.96094 -179.30469c-57.828125 -43.378906 -139.30469 -65.06641 -244.4375 -65.06641c-95.92969 0 -168.21094 18.796875 -216.83594 56.390625c-48.625 36.632812 -84.765625 90.61719 -108.421875 161.95312c-44.679688 174.48438 -164.26562 297.39453 -358.76562 368.72656c-193.17969 70.375 -500.03906 105.55859 -920.5742 105.55859l-991.53906 0c-578.2344 0 -981.6836 -83.38672 -1210.3516 -250.15625c-227.34766 -167.73438 -341.02344 -463.19922 -341.02344 -886.39453l0 -1003.51953c0 -427.05078 113.67578 -722.5156 341.02344 -886.39453c219.67578 -158.36328 600.65625 -237.54297 1142.9414 -237.54297c22.199219 0 44.66797 0.1328125 67.41016 0.3984375l991.53906 0c420.53516 0 727.39453 35.66797 920.5742 107.00391c194.5 70.37109 314.08594 191.35547 358.76562 362.9453c23.65625 71.33594 59.796875 125.80078 108.421875 163.39844c48.625 36.628906 120.89844 54.945312 216.83594 54.945312c105.13281 0 186.61719 -20.722656 244.4375 -62.17578c59.132812 -41.453125 82.78906 -102.18359 70.96094 -182.19531c-60.445312 -314.26172 -247.0625 -544.65625 -559.83594 -691.1875c-312.76562 -146.52734 -766.15625 -219.78906 -1360.1602 -219.78906l-991.53906 0c-16.757812 -0.12890625 -33.414062 -0.19140625 -49.96875 -0.19140625z" fill-rule="evenodd"/><path stroke="#000000" stroke-width="1.0" stroke-linejoin="round" stroke-linecap="butt" d="m70947.42 53450.773c21.835938 0 43.9375 0.12890625 66.30469 0.390625l991.53906 0c578.2344 0 980.3672 82.90234 1206.4062 248.71094c226.03125 165.8086 339.0547 460.3086 339.0547 883.5039l0 212.5586l-4088.3828 0l0 -212.5586c0 -426.08594 113.67969 -722.9961 341.03125 -890.7344c219.82031 -161.2461 601.1719 -241.8711 1144.0469 -241.8711zm16.59375 -466.85547c-730.25 0 -1266.9453 125.38281 -1610.0859 376.14844c-350.8828 255.46094 -526.3281 663.23047 -526.3281 1223.3125l0 1003.51953c0 551.40625 175.44531 955.3203 526.3281 1211.7422c350.8828 255.46094 904.14844 383.1914 1659.7969 383.1914l991.53906 0c678.1094 0 1194.5781 -88.6875 1549.3984 -266.0664c356.14062 -178.33594 560.5 -454.03906 613.0625 -827.10547c11.828125 -77.12109 -9.859375 -136.88672 -65.05469 -179.30469c-53.875 -43.378906 -133.38281 -65.07031 -238.51562 -65.07031c-103.82031 0 -181.35938 19.28125 -232.60938 57.839844c-49.9375 38.558594 -83.453125 94.953125 -100.53906 169.17969c-43.367188 237.14453 -181.35156 403.91406 -413.96094 500.3164c-232.60938 95.43359 -603.2031 143.15234 -1111.7812 143.15234l-991.53906 0c-578.2344 0 -981.6875 -83.38672 -1210.3516 -250.15625c-227.35156 -167.73438 -341.03125 -460.3086 -341.03125 -877.71875l0 -323.90234l4409.6953 0c208.95312 0 313.4297 -78.56641 313.4297 -235.69922l0 -443.91797c0 -554.2969 -174.78906 -959.1758 -524.35156 -1214.6367c-348.2578 -256.42188 -900.21094 -384.6328 -1655.8516 -384.6328l-991.53906 0c-16.671875 -0.12890625 -33.242188 -0.19140625 -49.710938 -0.19140625z" fill-rule="evenodd"/><path stroke="#000000" stroke-width="1.0" stroke-linejoin="round" stroke-linecap="butt" d="m77565.7 52975.434c-529.6094 0 -921.8828 92.54297 -1176.8359 277.6289c-253.63281 185.08984 -380.45312 474.28516 -380.45312 867.59766c0 385.59766 128.13281 670.9414 384.39844 856.02734c256.2578 185.08984 647.22656 277.6328 1172.8906 277.6328l1961.3984 0c375.85156 0 634.08594 52.054688 774.7031 156.16797c141.92969 103.14453 212.89844 294.01562 212.89844 572.6133c0 274.73828 -70.96875 464.16406 -212.89844 568.27344c-140.61719 103.14844 -398.85156 154.72266 -774.7031 154.72266l-1987.0234 0c-314.08594 0 -545.375 -36.148438 -693.875 -108.44922c-147.1875 -72.30078 -238.52344 -200.51172 -274.0078 -384.6328c-15.7734375 -77.12109 -49.28125 -134.48047 -100.53125 -172.07422c-49.9375 -38.5625 -125.50781 -57.839844 -226.69531 -57.839844c-109.078125 0 -191.86719 21.6875 -248.38281 65.07031c-56.507812 42.414062 -78.84375 102.17969 -67.015625 179.30078c52.5625 319.08594 210.26562 556.71094 473.09375 712.875c262.83594 155.20312 641.97656 232.8086 1137.4141 232.8086l1987.0234 0c557.21094 0 966.5703 -96.88281 1228.0938 -290.64844c262.82812 -194.72656 394.25 -494.52734 394.25 -899.40625c0 -408.73438 -131.42188 -709.9844 -394.25 -903.7461c-261.52344 -194.73047 -670.8906 -292.09375 -1228.0938 -292.09375l-1961.3984 0c-348.25 0 -588.7422 -47.714844 -721.47656 -143.15234c-132.72656 -96.39844 -199.09375 -270.8828 -199.09375 -523.4492c0 -263.17188 65.046875 -441.9922 195.15625 -536.46484c131.41406 -95.43359 373.21875 -143.15234 725.41406 -143.15234l1900.2891 0c286.4922 0 497.41406 31.8125 632.77344 95.43359c135.35938 63.625 217.49219 178.33984 246.40625 344.14844c19.710938 74.22656 54.539062 130.6211 104.47656 169.17969c51.25 38.5625 127.47656 57.839844 228.66406 57.839844c105.13281 0 186.60938 -21.207031 244.4375 -63.621094c59.132812 -43.382812 80.16406 -103.63281 63.078125 -180.75c-99.875 -591.89453 -606.4922 -887.83984 -1519.8359 -887.83984z" fill-rule="evenodd"/><path fill="#ff00ff" d="m21473.875 4222.3096c-1285.459 0 -2228.6094 256.81152 -2829.4453 770.43555c-598.44727 513.62354 -897.66797 1318.708 -897.66797 2415.254c0 1094.5078 301.61523 1898.5732 904.84766 2412.1963c603.2324 513.624 1551.1699 770.43555 2843.8105 770.43555l3023.3438 0c1043.6875 0 1769.0039 174.26562 2175.9434 522.7959c409.3379 346.4922 614.00586 964.0635 614.00586 1852.7139c0 876.4209 -204.66797 1488.8965 -614.00586 1837.4277c-406.93945 346.4922 -1132.2559 519.7373 -2175.9434 519.7373l-3177.7422 0c-998.20703 0 -1704.373 -155.9209 -2118.4941 -467.76367c-411.73242 -313.88086 -631.959 -865.2119 -660.6836 -1653.9902c-14.363281 -150.82715 -73.009766 -270.06055 -175.94336 -357.70215c-102.93359 -87.64258 -242.96875 -131.46387 -420.10742 -131.46387c-174.74805 0 -315.97852 45.859375 -423.69922 137.57812c-107.7207 89.680664 -156.79297 209.93457 -147.2168 360.75977c43.08789 1070.0488 381.80664 1854.751 1016.1582 2354.1074c636.74414 497.31836 1613.4062 745.97754 2929.9863 745.97754l3177.7422 0c1366.8477 0 2366.25 -267.00293 2998.207 -801.0078c634.3535 -536.0449 951.5293 -1383.9316 951.52734 -2543.6602c0 -1157.6914 -317.17383 -2007.6162 -951.52734 -2549.7744c-631.95703 -542.1582 -1631.3594 -813.2373 -2998.207 -813.2373l-3023.3438 0c-969.48047 0 -1644.5273 -161.01758 -2025.1367 -483.05078c-378.2168 -322.03418 -567.3262 -892.72754 -567.3262 -1712.0791c0 -821.3906 187.91016 -1393.1025 563.7344 -1715.1362c375.82422 -322.0337 1044.8848 -483.05078 2007.1836 -483.05078l3087.9766 0c912.0293 0 1559.5449 143.69238 1942.5508 431.07715c383.00586 287.38477 588.86914 791.8364 617.5957 1513.3555c14.361328 148.78809 73.00781 267.00293 175.9414 354.64453c102.93359 87.64258 239.38086 131.46338 409.3379 131.46338c184.31836 0 329.14062 -44.840332 434.4707 -134.52051c107.71875 -91.71826 154.39844 -211.97119 140.03516 -360.75928c-45.48242 -1008.9038 -368.64258 -1747.7476 -969.48047 -2216.5308c-598.4453 -470.82178 -1515.2617 -706.2324 -2750.4512 -706.2324z" fill-rule="evenodd"/><path fill="#ff00ff" d="m32879.047 3302.0671c-390.1875 0 -585.2793 163.05518 -585.2793 489.16528l0 12039.583c0 332.22363 195.0918 498.3369 585.2793 498.3369c383.0039 0 574.5039 -166.11328 574.5039 -498.3369l0 -2938.0498l1400.3633 -1024.1904l4445.246 4261.8535c138.4961 131.02637 279.7422 196.54004 423.73828 196.54004c124.79297 0 251.65234 -49.208008 380.57422 -147.62305c294.4336 -220.125 313.58594 -451.45898 57.44922 -694.0039l-4412.9336 -4264.91l4061.0469 -2977.794c284.86328 -220.12451 302.8164 -451.45947 53.859375 -694.0039c-138.4961 -131.02637 -279.7422 -196.53906 -423.73438 -196.53906c-124.79297 0 -251.65234 49.20752 -380.57422 147.62256l-5605.035 4096.7603l0 -7805.245c0 -326.1101 -191.5 -489.16528 -574.5039 -489.16528z" fill-rule="evenodd"/><path fill="#ff00ff" d="m50979.543 11651.509l0 1635.6465c-64.63281 499.35645 -263.3164 899.8613 -596.0508 1201.5127c-330.33984 299.61328 -766.0078 516.68066 -1307.0039 651.2012c-538.59766 134.52051 -1164.5742 201.78027 -1877.918 201.78027l-1235.1914 0c-816.27734 0 -1381.2109 -132.48242 -1694.7969 -397.4463c-311.1914 -267.0039 -466.78516 -748.0166 -466.78516 -1443.0381c0 -701.1377 155.59375 -1184.1885 466.78516 -1449.1523c313.58594 -267.00293 878.51953 -400.5039 1694.7969 -400.5039zm-4089.7695 -4197.6504c-1259.1289 0 -2221.4297 163.05469 -2886.8984 489.16504c-665.47266 324.07227 -1046.082 843.81055 -1141.832 1559.2148c-28.726562 154.90234 9.574219 278.2129 114.89844 369.93164c107.72266 91.71777 257.33203 137.57715 448.83594 137.57715c184.32031 0 318.3711 -35.66797 402.15234 -107.00488c86.17969 -73.375 154.40234 -188.53223 204.66797 -345.47266c102.93359 -407.6377 371.03906 -695.02246 804.3125 -862.1543c435.66797 -169.16895 1120.2891 -253.75488 2053.8633 -253.75488l1278.2773 0c1014.96094 0 1733.0938 164.0752 2154.3984 492.22266c423.69922 328.14844 642.73047 905.9756 657.09375 1733.4805l-5016.164 0c-1139.4375 0 -1978.457 228.27637 -2517.0586 684.83105c-536.20703 456.5547 -804.3086 1172.9795 -804.3086 2149.2705c0 978.33105 265.70703 1694.7549 797.1289 2149.2705c533.8125 452.47754 1375.2266 678.7168 2524.2383 678.7168l1235.1914 0c1816.8789 0 3077.2031 -475.917 3780.9727 -1427.751l0 929.41406c0 332.22363 195.09375 498.3369 585.28125 498.3369c383.0039 0 574.5039 -166.11328 574.5039 -498.3369l0 -4995.6016c0 -1171.958 -318.3711 -2027.998 -955.1172 -2568.1182c-634.35156 -542.1582 -1639.7383 -813.2373 -3016.1602 -813.2373z" fill-rule="evenodd"/><path fill="#ff00ff" d="m56398.55 4008.2996c-507.48047 0 -761.22266 215.02905 -761.22266 645.0867l0 424.9629c0 444.3247 253.74219 666.4878 761.22266 666.4878l495.51172 0c493.1172 0 739.6758 -222.16309 739.6758 -666.4878l0 -424.9629c0 -430.05762 -246.5586 -645.0867 -739.6758 -645.0867zm251.34766 3445.5588c-390.1875 0 -585.28125 163.05469 -585.28125 489.16504l0 7887.792c0 332.22363 195.09375 498.3369 585.28125 498.3369c383.0039 0 574.5039 -166.11328 574.5039 -498.3369l0 -7887.792c0 -326.11035 -191.5 -489.16504 -574.5039 -489.16504z" fill-rule="evenodd"/><path fill="#ff00ff" d="m61933.535 7453.8584c-390.1875 0 -585.28125 163.05469 -585.28125 489.16504l0 7887.792c0 332.22363 195.09375 498.3369 585.28125 498.3369c383.0039 0 574.5039 -166.11328 574.5039 -498.3369l0 -4478.921c74.20703 -933.49023 471.57422 -1651.9521 1192.1055 -2155.3848c720.52734 -503.43262 1735.4883 -755.1494 3044.8867 -755.1494c387.78906 0 581.6875 -166.11133 581.6875 -498.3369c0 -326.11035 -193.89844 -489.16504 -581.6875 -489.16504c-993.4219 0 -1852.7852 166.11182 -2578.1016 498.3369c-722.9219 332.2256 -1275.8828 811.2002 -1658.8906 1436.9238l0 -1446.0957c0 -326.11035 -191.5 -489.16504 -574.5039 -489.16504z" fill-rule="evenodd"/><path fill="#ff00ff" d="m69999.23 4008.2996c-507.47656 0 -761.21875 215.02905 -761.21875 645.0867l0 424.9629c0 444.3247 253.74219 666.4878 761.21875 666.4878l495.51562 0c493.1172 0 739.6719 -222.16309 739.6719 -666.4878l0 -424.9629c0 -430.05762 -246.55469 -645.0867 -739.6719 -645.0867zm251.35156 3445.5588c-390.1875 0 -585.28125 163.05469 -585.28125 489.16504l0 7887.792c0 332.22363 195.09375 498.3369 585.28125 498.3369c383.0 0 574.5 -166.11328 574.5 -498.3369l0 -7887.792c0 -326.11035 -191.5 -489.16504 -574.5 -489.16504z" fill-rule="evenodd"/><path fill="#ff00ff" d="m80740.68 8441.36c1053.2656 0 1785.7578 175.28418 2197.4922 525.8535c411.72656 350.56836 617.59375 973.23535 617.59375 1868.0l0 2103.4111c0 894.76465 -205.86719 1519.4697 -617.59375 1874.1143c-411.73438 352.60742 -1144.2266 528.91016 -2197.4922 528.91016l-4631.961 0l0 -4986.4287c95.75 -650.1826 457.21094 -1131.1953 1084.3828 -1443.0381c629.5625 -313.88184 1533.2188 -470.82227 2710.9531 -470.82227zm-5206.4688 -987.50195c-390.1875 0 -585.28125 163.05469 -585.28125 489.16504l0 11645.193c0 332.2246 195.09375 498.3379 585.28125 498.3379c383.0078 0 574.5078 -166.11328 574.5078 -498.3379l0 -3259.0645l4631.961 0c1376.4219 0 2381.8125 -272.09863 3016.164 -816.2949c636.7422 -546.2344 955.1172 -1404.3105 955.1172 -2574.2324l0 -2103.4111c0 -1171.958 -318.375 -2027.998 -955.1172 -2568.1182c-634.35156 -542.1582 -1639.7422 -813.2373 -3016.164 -813.2373l-836.625 0c-964.6875 0 -1755.8359 111.081055 -2373.4297 333.24365c-617.59375 222.16309 -1091.5625 552.3491 -1421.9062 990.56006l0 -834.6387c0 -326.11035 -191.5 -489.16504 -574.5078 -489.16504z" fill-rule="evenodd"/><path fill="#ff00ff" d="m96657.08 11651.509l0 1635.6465c-64.63281 499.35645 -263.3125 899.8613 -596.0547 1201.5127c-330.33594 299.61328 -766.0078 516.68066 -1307.0 651.2012c-538.60156 134.52051 -1164.5703 201.78027 -1877.9219 201.78027l-1235.1875 0c-816.28125 0 -1381.2109 -132.48242 -1694.7969 -397.4463c-311.1953 -267.0039 -466.78906 -748.0166 -466.78906 -1443.0381c0 -701.1377 155.59375 -1184.1885 466.78906 -1449.1523c313.58594 -267.00293 878.5156 -400.5039 1694.7969 -400.5039zm-4089.7734 -4197.6504c-1259.125 0 -2221.4297 163.05469 -2886.8984 489.16504c-665.46875 324.07227 -1046.0781 843.81055 -1141.8281 1559.2148c-28.726562 154.90234 9.5703125 278.2129 114.89844 369.93164c107.71875 91.71777 257.33594 137.57715 448.83594 137.57715c184.32031 0 318.3672 -35.66797 402.15625 -107.00488c86.171875 -73.375 154.39844 -188.53223 204.66406 -345.47266c102.9375 -407.6377 371.03906 -695.02246 804.3125 -862.1543c435.66406 -169.16895 1120.2891 -253.75488 2053.8594 -253.75488l1278.2812 0c1014.96094 0 1733.0938 164.0752 2154.3984 492.22266c423.70312 328.14844 642.7344 905.9756 657.09375 1733.4805l-5016.164 0c-1139.4375 0 -1978.4609 228.27637 -2517.0625 684.83105c-536.2031 456.5547 -804.3047 1172.9795 -804.3047 2149.2705c0 978.33105 265.71094 1694.7549 797.125 2149.2705c533.8125 452.47754 1375.2266 678.7168 2524.2422 678.7168l1235.1875 0c1816.8828 0 3077.2031 -475.917 3780.9766 -1427.751l0 929.41406c0 332.22363 195.09375 498.3369 585.28125 498.3369c383.0 0 574.5078 -166.11328 574.5078 -498.3369l0 -4995.6016c0 -1171.958 -318.375 -2027.998 -955.125 -2568.1182c-634.35156 -542.1582 -1639.7344 -813.2373 -3016.1562 -813.2373z" fill-rule="evenodd"/><path stroke="#000000" stroke-width="1.0" stroke-linejoin="round" stroke-linecap="butt" d="m21473.875 4222.3096c-1285.459 0 -2228.6094 256.81152 -2829.4453 770.43555c-598.44727 513.62354 -897.66797 1318.708 -897.66797 2415.254c0 1094.5078 301.61523 1898.5732 904.84766 2412.1963c603.2324 513.624 1551.1699 770.43555 2843.8105 770.43555l3023.3438 0c1043.6875 0 1769.0039 174.26562 2175.9434 522.7959c409.3379 346.4922 614.00586 964.0635 614.00586 1852.7139c0 876.4209 -204.66797 1488.8965 -614.00586 1837.4277c-406.93945 346.4922 -1132.2559 519.7373 -2175.9434 519.7373l-3177.7422 0c-998.20703 0 -1704.373 -155.9209 -2118.4941 -467.76367c-411.73242 -313.88086 -631.959 -865.2119 -660.6836 -1653.9902c-14.363281 -150.82715 -73.009766 -270.06055 -175.94336 -357.70215c-102.93359 -87.64258 -242.96875 -131.46387 -420.10742 -131.46387c-174.74805 0 -315.97852 45.859375 -423.69922 137.57812c-107.7207 89.680664 -156.79297 209.93457 -147.2168 360.75977c43.08789 1070.0488 381.80664 1854.751 1016.1582 2354.1074c636.74414 497.31836 1613.4062 745.97754 2929.9863 745.97754l3177.7422 0c1366.8477 0 2366.25 -267.00293 2998.207 -801.0078c634.3535 -536.0449 951.5293 -1383.9316 951.52734 -2543.6602c0 -1157.6914 -317.17383 -2007.6162 -951.52734 -2549.7744c-631.95703 -542.1582 -1631.3594 -813.2373 -2998.207 -813.2373l-3023.3438 0c-969.48047 0 -1644.5273 -161.01758 -2025.1367 -483.05078c-378.2168 -322.03418 -567.3262 -892.72754 -567.3262 -1712.0791c0 -821.3906 187.91016 -1393.1025 563.7344 -1715.1362c375.82422 -322.0337 1044.8848 -483.05078 2007.1836 -483.05078l3087.9766 0c912.0293 0 1559.5449 143.69238 1942.5508 431.07715c383.00586 287.38477 588.86914 791.8364 617.5957 1513.3555c14.361328 148.78809 73.00781 267.00293 175.9414 354.64453c102.93359 87.64258 239.38086 131.46338 409.3379 131.46338c184.31836 0 329.14062 -44.840332 434.4707 -134.52051c107.71875 -91.71826 154.39844 -211.97119 140.03516 -360.75928c-45.48242 -1008.9038 -368.64258 -1747.7476 -969.48047 -2216.5308c-598.4453 -470.82178 -1515.2617 -706.2324 -2750.4512 -706.2324z" fill-rule="evenodd"/><path stroke="#000000" stroke-width="1.0" stroke-linejoin="round" stroke-linecap="butt" d="m32879.047 3302.0671c-390.1875 0 -585.2793 163.05518 -585.2793 489.16528l0 12039.583c0 332.22363 195.0918 498.3369 585.2793 498.3369c383.0039 0 574.5039 -166.11328 574.5039 -498.3369l0 -2938.0498l1400.3633 -1024.1904l4445.246 4261.8535c138.4961 131.02637 279.7422 196.54004 423.73828 196.54004c124.79297 0 251.65234 -49.208008 380.57422 -147.62305c294.4336 -220.125 313.58594 -451.45898 57.44922 -694.0039l-4412.9336 -4264.91l4061.0469 -2977.794c284.86328 -220.12451 302.8164 -451.45947 53.859375 -694.0039c-138.4961 -131.02637 -279.7422 -196.53906 -423.73438 -196.53906c-124.79297 0 -251.65234 49.20752 -380.57422 147.62256l-5605.035 4096.7603l0 -7805.245c0 -326.1101 -191.5 -489.16528 -574.5039 -489.16528z" fill-rule="evenodd"/><path stroke="#000000" stroke-width="1.0" stroke-linejoin="round" stroke-linecap="butt" d="m50979.543 11651.509l0 1635.6465c-64.63281 499.35645 -263.3164 899.8613 -596.0508 1201.5127c-330.33984 299.61328 -766.0078 516.68066 -1307.0039 651.2012c-538.59766 134.52051 -1164.5742 201.78027 -1877.918 201.78027l-1235.1914 0c-816.27734 0 -1381.2109 -132.48242 -1694.7969 -397.4463c-311.1914 -267.0039 -466.78516 -748.0166 -466.78516 -1443.0381c0 -701.1377 155.59375 -1184.1885 466.78516 -1449.1523c313.58594 -267.00293 878.51953 -400.5039 1694.7969 -400.5039zm-4089.7695 -4197.6504c-1259.1289 0 -2221.4297 163.05469 -2886.8984 489.16504c-665.47266 324.07227 -1046.082 843.81055 -1141.832 1559.2148c-28.726562 154.90234 9.574219 278.2129 114.89844 369.93164c107.72266 91.71777 257.33203 137.57715 448.83594 137.57715c184.32031 0 318.3711 -35.66797 402.15234 -107.00488c86.17969 -73.375 154.40234 -188.53223 204.66797 -345.47266c102.93359 -407.6377 371.03906 -695.02246 804.3125 -862.1543c435.66797 -169.16895 1120.2891 -253.75488 2053.8633 -253.75488l1278.2773 0c1014.96094 0 1733.0938 164.0752 2154.3984 492.22266c423.69922 328.14844 642.73047 905.9756 657.09375 1733.4805l-5016.164 0c-1139.4375 0 -1978.457 228.27637 -2517.0586 684.83105c-536.20703 456.5547 -804.3086 1172.9795 -804.3086 2149.2705c0 978.33105 265.70703 1694.7549 797.1289 2149.2705c533.8125 452.47754 1375.2266 678.7168 2524.2383 678.7168l1235.1914 0c1816.8789 0 3077.2031 -475.917 3780.9727 -1427.751l0 929.41406c0 332.22363 195.09375 498.3369 585.28125 498.3369c383.0039 0 574.5039 -166.11328 574.5039 -498.3369l0 -4995.6016c0 -1171.958 -318.3711 -2027.998 -955.1172 -2568.1182c-634.35156 -542.1582 -1639.7383 -813.2373 -3016.1602 -813.2373z" fill-rule="evenodd"/><path stroke="#000000" stroke-width="1.0" stroke-linejoin="round" stroke-linecap="butt" d="m56398.55 4008.2996c-507.48047 0 -761.22266 215.02905 -761.22266 645.0867l0 424.9629c0 444.3247 253.74219 666.4878 761.22266 666.4878l495.51172 0c493.1172 0 739.6758 -222.16309 739.6758 -666.4878l0 -424.9629c0 -430.05762 -246.5586 -645.0867 -739.6758 -645.0867zm251.34766 3445.5588c-390.1875 0 -585.28125 163.05469 -585.28125 489.16504l0 7887.792c0 332.22363 195.09375 498.3369 585.28125 498.3369c383.0039 0 574.5039 -166.11328 574.5039 -498.3369l0 -7887.792c0 -326.11035 -191.5 -489.16504 -574.5039 -489.16504z" fill-rule="evenodd"/><path stroke="#000000" stroke-width="1.0" stroke-linejoin="round" stroke-linecap="butt" d="m61933.535 7453.8584c-390.1875 0 -585.28125 163.05469 -585.28125 489.16504l0 7887.792c0 332.22363 195.09375 498.3369 585.28125 498.3369c383.0039 0 574.5039 -166.11328 574.5039 -498.3369l0 -4478.921c74.20703 -933.49023 471.57422 -1651.9521 1192.1055 -2155.3848c720.52734 -503.43262 1735.4883 -755.1494 3044.8867 -755.1494c387.78906 0 581.6875 -166.11133 581.6875 -498.3369c0 -326.11035 -193.89844 -489.16504 -581.6875 -489.16504c-993.4219 0 -1852.7852 166.11182 -2578.1016 498.3369c-722.9219 332.2256 -1275.8828 811.2002 -1658.8906 1436.9238l0 -1446.0957c0 -326.11035 -191.5 -489.16504 -574.5039 -489.16504z" fill-rule="evenodd"/><path stroke="#000000" stroke-width="1.0" stroke-linejoin="round" stroke-linecap="butt" d="m69999.23 4008.2996c-507.47656 0 -761.21875 215.02905 -761.21875 645.0867l0 424.9629c0 444.3247 253.74219 666.4878 761.21875 666.4878l495.51562 0c493.1172 0 739.6719 -222.16309 739.6719 -666.4878l0 -424.9629c0 -430.05762 -246.55469 -645.0867 -739.6719 -645.0867zm251.35156 3445.5588c-390.1875 0 -585.28125 163.05469 -585.28125 489.16504l0 7887.792c0 332.22363 195.09375 498.3369 585.28125 498.3369c383.0 0 574.5 -166.11328 574.5 -498.3369l0 -7887.792c0 -326.11035 -191.5 -489.16504 -574.5 -489.16504z" fill-rule="evenodd"/><path stroke="#000000" stroke-width="1.0" stroke-linejoin="round" stroke-linecap="butt" d="m80740.68 8441.36c1053.2656 0 1785.7578 175.28418 2197.4922 525.8535c411.72656 350.56836 617.59375 973.23535 617.59375 1868.0l0 2103.4111c0 894.76465 -205.86719 1519.4697 -617.59375 1874.1143c-411.73438 352.60742 -1144.2266 528.91016 -2197.4922 528.91016l-4631.961 0l0 -4986.4287c95.75 -650.1826 457.21094 -1131.1953 1084.3828 -1443.0381c629.5625 -313.88184 1533.2188 -470.82227 2710.9531 -470.82227zm-5206.4688 -987.50195c-390.1875 0 -585.28125 163.05469 -585.28125 489.16504l0 11645.193c0 332.2246 195.09375 498.3379 585.28125 498.3379c383.0078 0 574.5078 -166.11328 574.5078 -498.3379l0 -3259.0645l4631.961 0c1376.4219 0 2381.8125 -272.09863 3016.164 -816.2949c636.7422 -546.2344 955.1172 -1404.3105 955.1172 -2574.2324l0 -2103.4111c0 -1171.958 -318.375 -2027.998 -955.1172 -2568.1182c-634.35156 -542.1582 -1639.7422 -813.2373 -3016.164 -813.2373l-836.625 0c-964.6875 0 -1755.8359 111.081055 -2373.4297 333.24365c-617.59375 222.16309 -1091.5625 552.3491 -1421.9062 990.56006l0 -834.6387c0 -326.11035 -191.5 -489.16504 -574.5078 -489.16504z" fill-rule="evenodd"/><path stroke="#000000" stroke-width="1.0" stroke-linejoin="round" stroke-linecap="butt" d="m96657.08 11651.509l0 1635.6465c-64.63281 499.35645 -263.3125 899.8613 -596.0547 1201.5127c-330.33594 299.61328 -766.0078 516.68066 -1307.0 651.2012c-538.60156 134.52051 -1164.5703 201.78027 -1877.9219 201.78027l-1235.1875 0c-816.28125 0 -1381.2109 -132.48242 -1694.7969 -397.4463c-311.1953 -267.0039 -466.78906 -748.0166 -466.78906 -1443.0381c0 -701.1377 155.59375 -1184.1885 466.78906 -1449.1523c313.58594 -267.00293 878.5156 -400.5039 1694.7969 -400.5039zm-4089.7734 -4197.6504c-1259.125 0 -2221.4297 163.05469 -2886.8984 489.16504c-665.46875 324.07227 -1046.0781 843.81055 -1141.8281 1559.2148c-28.726562 154.90234 9.5703125 278.2129 114.89844 369.93164c107.71875 91.71777 257.33594 137.57715 448.83594 137.57715c184.32031 0 318.3672 -35.66797 402.15625 -107.00488c86.171875 -73.375 154.39844 -188.53223 204.66406 -345.47266c102.9375 -407.6377 371.03906 -695.02246 804.3125 -862.1543c435.66406 -169.16895 1120.2891 -253.75488 2053.8594 -253.75488l1278.2812 0c1014.96094 0 1733.0938 164.0752 2154.3984 492.22266c423.70312 328.14844 642.7344 905.9756 657.09375 1733.4805l-5016.164 0c-1139.4375 0 -1978.4609 228.27637 -2517.0625 684.83105c-536.2031 456.5547 -804.3047 1172.9795 -804.3047 2149.2705c0 978.33105 265.71094 1694.7549 797.125 2149.2705c533.8125 452.47754 1375.2266 678.7168 2524.2422 678.7168l1235.1875 0c1816.8828 0 3077.2031 -475.917 3780.9766 -1427.751l0 929.41406c0 332.22363 195.09375 498.3369 585.28125 498.3369c383.0 0 574.5078 -166.11328 574.5078 -498.3369l0 -4995.6016c0 -1171.958 -318.375 -2027.998 -955.125 -2568.1182c-634.35156 -542.1582 -1639.7344 -813.2373 -3016.1562 -813.2373z" fill-rule="evenodd"/><path fill="#ff00ff" d="m17584.36 22307.695l3134.6543 6291.8887l-6265.717 0l3131.0625 -6291.8887zm-32.314453 -1559.2148c-315.98047 0 -532.61523 128.40625 -649.9121 385.2168l-5472.1787 11018.451c-138.84082 305.72852 -32.316406 524.83203 319.56934 657.3164c106.00586 36.460938 202.74707 54.691406 290.22363 54.691406c210.80078 0 367.80176 -105.87109 470.99805 -317.61914l1468.584 -2959.4492l7224.425 0l1464.9922 2959.4492c99.81445 211.74805 254.02734 317.61914 462.64258 317.61914c86.56836 0 182.5039 -18.230469 287.8086 -54.691406c354.2793 -132.48438 457.2129 -351.5879 308.79688 -657.3164l-5468.588 -11018.451c-126.86914 -250.69727 -341.11328 -379.10156 -642.73047 -385.2168z" fill-rule="evenodd"/><path fill="#ff00ff" d="m31990.322 24967.531c1053.2637 0 1785.7598 175.28516 2197.4902 525.8535c411.73047 350.56836 617.59375 973.2363 617.59375 1868.0l0 2103.4102c0 894.7656 -205.86328 1519.4707 -617.59375 1874.1152c-411.73047 352.60742 -1144.2266 528.91016 -2197.4902 528.91016l-4631.963 0l0 -4986.4297c95.75391 -650.18164 457.21484 -1131.1934 1084.3828 -1443.0371c629.56445 -313.88086 1533.2148 -470.82227 2710.955 -470.82227zm-5206.4688 -987.50195c-390.1875 0 -585.2793 163.05469 -585.2793 489.16602l0 11645.191c0 332.22656 195.0918 498.33984 585.2793 498.33984c383.00586 0 574.50586 -166.11328 574.50586 -498.33984l0 -3259.0625l4631.963 0c1376.4238 0 2381.8105 -272.0996 3016.162 -816.2949c636.7461 -546.2344 955.1172 -1404.3125 955.1172 -2574.2344l0 -2103.4102c0 -1171.959 -318.3711 -2027.998 -955.1172 -2568.1172c-634.35156 -542.1582 -1639.7383 -813.2383 -3016.162 -813.2383l-836.625 0c-964.69336 0 -1755.8379 111.08008 -2373.4316 333.24414c-617.5957 222.16211 -1091.5645 552.3496 -1421.9062 990.5586l0 -834.6367c0 -326.11133 -191.5 -489.16602 -574.50586 -489.16602z" fill-rule="evenodd"/><path fill="#ff00ff" d="m45579.97 24967.531c1053.2617 0 1785.7578 175.28516 2197.4883 525.8535c411.73047 350.56836 617.59766 973.2363 617.59766 1868.0l0 2103.4102c0 894.7656 -205.86719 1519.4707 -617.59766 1874.1152c-411.73047 352.60742 -1144.2266 528.91016 -2197.4883 528.91016l-4631.961 0l0 -4986.4297c95.75 -650.18164 457.21094 -1131.1934 1084.3789 -1443.0371c629.5664 -313.88086 1533.2188 -470.82227 2710.957 -470.82227zm-5206.4688 -987.50195c-390.1875 0 -585.27734 163.05469 -585.27734 489.16602l0 11645.191c0 332.22656 195.08984 498.33984 585.27734 498.33984c383.0039 0 574.5078 -166.11328 574.5078 -498.33984l0 -3259.0625l4631.961 0c1376.4219 0 2381.8086 -272.0996 3016.164 -816.2949c636.7422 -546.2344 955.1172 -1404.3125 955.1172 -2574.2344l0 -2103.4102c0 -1171.959 -318.375 -2027.998 -955.1172 -2568.1172c-634.35547 -542.1582 -1639.7422 -813.2383 -3016.164 -813.2383l-836.625 0c-964.6953 0 -1755.8359 111.08008 -2373.4336 333.24414c-617.59375 222.16211 -1091.5625 552.3496 -1421.9023 990.5586l0 -834.6367c0 -326.11133 -191.5039 -489.16602 -574.5078 -489.16602z" fill-rule="evenodd"/><path fill="#ff00ff" d="m55708.21 23961.686c-964.6914 0 -1679.2344 195.66602 -2143.629 586.99805c-462.0 391.33203 -693.0 1002.78906 -693.0 1834.3711c0 815.2754 233.39453 1418.5781 700.1797 1809.9121c466.78906 391.33203 1178.9375 586.99805 2136.4492 586.99805l3572.7148 0c684.6211 0 1155.0 110.0625 1411.1328 330.18555c258.52734 218.08789 387.79297 621.64844 387.79297 1210.6855c0 580.8828 -129.26562 981.3867 -387.79297 1201.5117c-256.1328 218.08594 -726.5117 327.1289 -1411.1328 327.1289l-3619.3945 0c-572.1133 0 -993.41797 -76.43164 -1263.9141 -229.29492c-268.10156 -152.86523 -434.47266 -423.94336 -499.10156 -813.2383c-28.726562 -163.05469 -89.76953 -284.32812 -183.125 -363.8164c-90.96484 -81.52734 -228.60547 -122.291016 -412.92578 -122.291016c-198.6836 0 -349.4922 45.859375 -452.42578 137.57617c-102.93359 89.68164 -143.625 216.05078 -122.08203 379.10352c95.75 674.6406 383.0039 1177.0547 861.7578 1507.2422c478.7578 328.14844 1169.3633 492.22266 2071.8164 492.22266l3619.3945 0c1014.96484 0 1760.625 -204.83789 2236.9883 -614.5156c478.7539 -411.7129 718.1328 -1045.5898 718.1328 -1901.6289c0 -864.1914 -239.3789 -1501.127 -718.1328 -1910.8027c-476.36328 -411.7129 -1222.0234 -617.57227 -2236.9883 -617.57227l-3572.7148 0c-634.35156 0 -1072.4141 -100.88867 -1314.1836 -302.66992c-241.77344 -203.82031 -362.66016 -572.7324 -362.66016 -1106.7363c0 -556.4258 118.49219 -934.50977 355.47656 -1134.252c239.3789 -201.78125 679.83594 -302.67188 1321.3672 -302.67188l3461.4062 0c521.84375 0 906.04297 67.259766 1152.6016 201.78125c246.5625 134.51953 396.17188 377.06445 448.83594 727.6328c35.90625 156.93945 99.33984 276.17383 190.30469 357.70312c93.359375 81.52734 232.19531 122.291016 416.51953 122.291016c191.5 0 339.91406 -44.841797 445.2422 -134.52148c107.71875 -91.71875 146.01953 -219.10547 114.89844 -382.16016c-181.92578 -1251.4473 -1104.7266 -1877.1719 -2768.4023 -1877.1719z" fill-rule="evenodd"/><path fill="#ff00ff" d="m71821.62 20739.309c-184.32031 0 -327.9453 43.820312 -430.8828 131.46289c-102.92969 87.64258 -154.39844 209.9336 -154.39844 366.875l0 11119.34c0 156.9414 51.46875 279.23242 154.39844 366.87305c102.9375 87.640625 246.5625 131.46484 430.8828 131.46484c177.14062 0 317.17188 -43.82422 420.10938 -131.46484c102.92969 -87.640625 154.39844 -209.93164 154.39844 -366.87305l0 -11119.34c0 -156.9414 -51.46875 -279.23242 -154.39844 -366.875c-102.9375 -87.64258 -242.96875 -131.46289 -420.10938 -131.46289z" fill-rule="evenodd"/><path fill="#ff00ff" d="m77105.26 23980.03c-390.1875 0 -585.28125 163.05469 -585.28125 489.16602l0 7887.791c0 332.2246 195.09375 498.3379 585.28125 498.3379c383.0 0 574.5078 -166.11328 574.5078 -498.3379l0 -5493.9395c81.38281 -650.18164 448.82812 -1128.1367 1102.3281 -1433.8652c655.89844 -307.76758 1553.5625 -461.6504 2693.0078 -461.6504l617.59375 0c1043.6875 0 1772.5938 175.28516 2186.7188 525.8535c416.51562 350.56836 624.77344 973.2363 624.77344 1868.0l0 4995.6016c0 332.2246 195.09375 498.3379 585.28125 498.3379c383.0 0 574.5078 -166.11328 574.5078 -498.3379l0 -4995.6016c0 -1171.959 -318.375 -2027.998 -955.125 -2568.1172c-636.7422 -542.1582 -1642.1328 -813.2383 -3016.1562 -813.2383l-617.59375 0c-1831.2422 0 -3096.3594 463.6875 -3795.336 1391.0645l0 -901.89844c0 -326.11133 -191.50781 -489.16602 -574.5078 -489.16602z" fill-rule="evenodd"/><path fill="#ff00ff" d="m93584.88 23979.625c-1336.9688 0 -2316.8047 265.0996 -2939.5 795.2988c-634.3594 540.11914 -951.53125 1396.1582 -951.53125 2568.1172l0 2121.754c0 1169.9219 319.5703 2027.998 958.71094 2574.2344c639.1406 544.1953 1646.9219 816.2949 3023.3438 816.2949l1806.1016 0c1081.9922 0 1907.8438 -155.92188 2477.5625 -467.76562c569.71875 -313.88086 909.6406 -803.0449 1019.75 -1467.4961c21.546875 -163.05469 -21.546875 -289.42383 -129.26562 -379.10352c-105.32031 -91.71875 -253.73438 -137.57617 -445.2422 -137.57617c-174.74219 0 -306.40625 39.74414 -394.96875 119.23242c-88.578125 77.453125 -154.39844 191.5918 -197.49219 342.41602c-81.390625 368.9121 -299.21875 628.78125 -653.5 779.6074c-351.8828 148.78711 -910.83594 223.18164 -1676.8438 223.18164l-1806.1016 0c-1053.2656 0 -1788.1562 -176.30273 -2204.6719 -528.91016c-414.125 -354.64453 -621.1875 -979.3496 -621.1875 -1874.1152l0 -2121.754c0 -902.91797 207.0625 -1527.623 621.1875 -1874.1152c400.14062 -334.82422 1094.1016 -502.23633 2081.8828 -502.23633c40.4375 0 81.36719 0.28125 122.78906 0.8417969l1806.1016 0c766.0078 0 1324.9609 75.41406 1676.8438 226.24023c354.28125 148.78711 572.1172 404.58008 653.5 767.37695c43.09375 150.82617 108.91406 265.98438 197.49219 345.47266c88.57031 77.45117 220.22656 116.177734 394.96875 116.177734c191.5 0 339.91406 -43.820312 445.2422 -131.46289c107.71875 -87.64258 150.8125 -216.04883 129.26562 -385.21875c-110.11719 -664.4492 -450.03125 -1151.5762 -1019.75 -1461.3809c-569.71875 -309.8047 -1395.5703 -464.70703 -2477.5625 -464.70703l-1806.1016 0c-30.523438 -0.26953125 -60.859375 -0.40429688 -91.02344 -0.40429688z" fill-rule="evenodd"/><path fill="#ff00ff" d="m102786.26 31409.229c-426.09375 0 -639.1406 178.3418 -639.1406 535.02344l0 357.70312c0 368.9121 213.04688 553.36914 639.1406 553.36914l405.7422 0c421.3047 0 631.96094 -184.45703 631.96094 -553.36914l0 -357.70312c0 -356.68164 -210.65625 -535.02344 -631.96094 -535.02344z" fill-rule="evenodd"/><path stroke="#000000" stroke-width="1.0" stroke-linejoin="round" stroke-linecap="butt" d="m17584.36 22307.695l3134.6543 6291.8887l-6265.717 0l3131.0625 -6291.8887zm-32.314453 -1559.2148c-315.98047 0 -532.61523 128.40625 -649.9121 385.2168l-5472.1787 11018.451c-138.84082 305.72852 -32.316406 524.83203 319.56934 657.3164c106.00586 36.460938 202.74707 54.691406 290.22363 54.691406c210.80078 0 367.80176 -105.87109 470.99805 -317.61914l1468.584 -2959.4492l7224.425 0l1464.9922 2959.4492c99.81445 211.74805 254.02734 317.61914 462.64258 317.61914c86.56836 0 182.5039 -18.230469 287.8086 -54.691406c354.2793 -132.48438 457.2129 -351.5879 308.79688 -657.3164l-5468.588 -11018.451c-126.86914 -250.69727 -341.11328 -379.10156 -642.73047 -385.2168z" fill-rule="evenodd"/><path stroke="#000000" stroke-width="1.0" stroke-linejoin="round" stroke-linecap="butt" d="m31990.322 24967.531c1053.2637 0 1785.7598 175.28516 2197.4902 525.8535c411.73047 350.56836 617.59375 973.2363 617.59375 1868.0l0 2103.4102c0 894.7656 -205.86328 1519.4707 -617.59375 1874.1152c-411.73047 352.60742 -1144.2266 528.91016 -2197.4902 528.91016l-4631.963 0l0 -4986.4297c95.75391 -650.18164 457.21484 -1131.1934 1084.3828 -1443.0371c629.56445 -313.88086 1533.2148 -470.82227 2710.955 -470.82227zm-5206.4688 -987.50195c-390.1875 0 -585.2793 163.05469 -585.2793 489.16602l0 11645.191c0 332.22656 195.0918 498.33984 585.2793 498.33984c383.00586 0 574.50586 -166.11328 574.50586 -498.33984l0 -3259.0625l4631.963 0c1376.4238 0 2381.8105 -272.0996 3016.162 -816.2949c636.7461 -546.2344 955.1172 -1404.3125 955.1172 -2574.2344l0 -2103.4102c0 -1171.959 -318.3711 -2027.998 -955.1172 -2568.1172c-634.35156 -542.1582 -1639.7383 -813.2383 -3016.162 -813.2383l-836.625 0c-964.69336 0 -1755.8379 111.08008 -2373.4316 333.24414c-617.5957 222.16211 -1091.5645 552.3496 -1421.9062 990.5586l0 -834.6367c0 -326.11133 -191.5 -489.16602 -574.50586 -489.16602z" fill-rule="evenodd"/><path stroke="#000000" stroke-width="1.0" stroke-linejoin="round" stroke-linecap="butt" d="m45579.97 24967.531c1053.2617 0 1785.7578 175.28516 2197.4883 525.8535c411.73047 350.56836 617.59766 973.2363 617.59766 1868.0l0 2103.4102c0 894.7656 -205.86719 1519.4707 -617.59766 1874.1152c-411.73047 352.60742 -1144.2266 528.91016 -2197.4883 528.91016l-4631.961 0l0 -4986.4297c95.75 -650.18164 457.21094 -1131.1934 1084.3789 -1443.0371c629.5664 -313.88086 1533.2188 -470.82227 2710.957 -470.82227zm-5206.4688 -987.50195c-390.1875 0 -585.27734 163.05469 -585.27734 489.16602l0 11645.191c0 332.22656 195.08984 498.33984 585.27734 498.33984c383.0039 0 574.5078 -166.11328 574.5078 -498.33984l0 -3259.0625l4631.961 0c1376.4219 0 2381.8086 -272.0996 3016.164 -816.2949c636.7422 -546.2344 955.1172 -1404.3125 955.1172 -2574.2344l0 -2103.4102c0 -1171.959 -318.375 -2027.998 -955.1172 -2568.1172c-634.35547 -542.1582 -1639.7422 -813.2383 -3016.164 -813.2383l-836.625 0c-964.6953 0 -1755.8359 111.08008 -2373.4336 333.24414c-617.59375 222.16211 -1091.5625 552.3496 -1421.9023 990.5586l0 -834.6367c0 -326.11133 -191.5039 -489.16602 -574.5078 -489.16602z" fill-rule="evenodd"/><path stroke="#000000" stroke-width="1.0" stroke-linejoin="round" stroke-linecap="butt" d="m55708.21 23961.686c-964.6914 0 -1679.2344 195.66602 -2143.629 586.99805c-462.0 391.33203 -693.0 1002.78906 -693.0 1834.3711c0 815.2754 233.39453 1418.5781 700.1797 1809.9121c466.78906 391.33203 1178.9375 586.99805 2136.4492 586.99805l3572.7148 0c684.6211 0 1155.0 110.0625 1411.1328 330.18555c258.52734 218.08789 387.79297 621.64844 387.79297 1210.6855c0 580.8828 -129.26562 981.3867 -387.79297 1201.5117c-256.1328 218.08594 -726.5117 327.1289 -1411.1328 327.1289l-3619.3945 0c-572.1133 0 -993.41797 -76.43164 -1263.9141 -229.29492c-268.10156 -152.86523 -434.47266 -423.94336 -499.10156 -813.2383c-28.726562 -163.05469 -89.76953 -284.32812 -183.125 -363.8164c-90.96484 -81.52734 -228.60547 -122.291016 -412.92578 -122.291016c-198.6836 0 -349.4922 45.859375 -452.42578 137.57617c-102.93359 89.68164 -143.625 216.05078 -122.08203 379.10352c95.75 674.6406 383.0039 1177.0547 861.7578 1507.2422c478.7578 328.14844 1169.3633 492.22266 2071.8164 492.22266l3619.3945 0c1014.96484 0 1760.625 -204.83789 2236.9883 -614.5156c478.7539 -411.7129 718.1328 -1045.5898 718.1328 -1901.6289c0 -864.1914 -239.3789 -1501.127 -718.1328 -1910.8027c-476.36328 -411.7129 -1222.0234 -617.57227 -2236.9883 -617.57227l-3572.7148 0c-634.35156 0 -1072.4141 -100.88867 -1314.1836 -302.66992c-241.77344 -203.82031 -362.66016 -572.7324 -362.66016 -1106.7363c0 -556.4258 118.49219 -934.50977 355.47656 -1134.252c239.3789 -201.78125 679.83594 -302.67188 1321.3672 -302.67188l3461.4062 0c521.84375 0 906.04297 67.259766 1152.6016 201.78125c246.5625 134.51953 396.17188 377.06445 448.83594 727.6328c35.90625 156.93945 99.33984 276.17383 190.30469 357.70312c93.359375 81.52734 232.19531 122.291016 416.51953 122.291016c191.5 0 339.91406 -44.841797 445.2422 -134.52148c107.71875 -91.71875 146.01953 -219.10547 114.89844 -382.16016c-181.92578 -1251.4473 -1104.7266 -1877.1719 -2768.4023 -1877.1719z" fill-rule="evenodd"/><path stroke="#000000" stroke-width="1.0" stroke-linejoin="round" stroke-linecap="butt" d="m71821.62 20739.309c-184.32031 0 -327.9453 43.820312 -430.8828 131.46289c-102.92969 87.64258 -154.39844 209.9336 -154.39844 366.875l0 11119.34c0 156.9414 51.46875 279.23242 154.39844 366.87305c102.9375 87.640625 246.5625 131.46484 430.8828 131.46484c177.14062 0 317.17188 -43.82422 420.10938 -131.46484c102.92969 -87.640625 154.39844 -209.93164 154.39844 -366.87305l0 -11119.34c0 -156.9414 -51.46875 -279.23242 -154.39844 -366.875c-102.9375 -87.64258 -242.96875 -131.46289 -420.10938 -131.46289z" fill-rule="evenodd"/><path stroke="#000000" stroke-width="1.0" stroke-linejoin="round" stroke-linecap="butt" d="m77105.26 23980.03c-390.1875 0 -585.28125 163.05469 -585.28125 489.16602l0 7887.791c0 332.2246 195.09375 498.3379 585.28125 498.3379c383.0 0 574.5078 -166.11328 574.5078 -498.3379l0 -5493.9395c81.38281 -650.18164 448.82812 -1128.1367 1102.3281 -1433.8652c655.89844 -307.76758 1553.5625 -461.6504 2693.0078 -461.6504l617.59375 0c1043.6875 0 1772.5938 175.28516 2186.7188 525.8535c416.51562 350.56836 624.77344 973.2363 624.77344 1868.0l0 4995.6016c0 332.2246 195.09375 498.3379 585.28125 498.3379c383.0 0 574.5078 -166.11328 574.5078 -498.3379l0 -4995.6016c0 -1171.959 -318.375 -2027.998 -955.125 -2568.1172c-636.7422 -542.1582 -1642.1328 -813.2383 -3016.1562 -813.2383l-617.59375 0c-1831.2422 0 -3096.3594 463.6875 -3795.336 1391.0645l0 -901.89844c0 -326.11133 -191.50781 -489.16602 -574.5078 -489.16602z" fill-rule="evenodd"/><path stroke="#000000" stroke-width="1.0" stroke-linejoin="round" stroke-linecap="butt" d="m93584.88 23979.625c-1336.9688 0 -2316.8047 265.0996 -2939.5 795.2988c-634.3594 540.11914 -951.53125 1396.1582 -951.53125 2568.1172l0 2121.754c0 1169.9219 319.5703 2027.998 958.71094 2574.2344c639.1406 544.1953 1646.9219 816.2949 3023.3438 816.2949l1806.1016 0c1081.9922 0 1907.8438 -155.92188 2477.5625 -467.76562c569.71875 -313.88086 909.6406 -803.0449 1019.75 -1467.4961c21.546875 -163.05469 -21.546875 -289.42383 -129.26562 -379.10352c-105.32031 -91.71875 -253.73438 -137.57617 -445.2422 -137.57617c-174.74219 0 -306.40625 39.74414 -394.96875 119.23242c-88.578125 77.453125 -154.39844 191.5918 -197.49219 342.41602c-81.390625 368.9121 -299.21875 628.78125 -653.5 779.6074c-351.8828 148.78711 -910.83594 223.18164 -1676.8438 223.18164l-1806.1016 0c-1053.2656 0 -1788.1562 -176.30273 -2204.6719 -528.91016c-414.125 -354.64453 -621.1875 -979.3496 -621.1875 -1874.1152l0 -2121.754c0 -902.91797 207.0625 -1527.623 621.1875 -1874.1152c400.14062 -334.82422 1094.1016 -502.23633 2081.8828 -502.23633c40.4375 0 81.36719 0.28125 122.78906 0.8417969l1806.1016 0c766.0078 0 1324.9609 75.41406 1676.8438 226.24023c354.28125 148.78711 572.1172 404.58008 653.5 767.37695c43.09375 150.82617 108.91406 265.98438 197.49219 345.47266c88.57031 77.45117 220.22656 116.177734 394.96875 116.177734c191.5 0 339.91406 -43.820312 445.2422 -131.46289c107.71875 -87.64258 150.8125 -216.04883 129.26562 -385.21875c-110.11719 -664.4492 -450.03125 -1151.5762 -1019.75 -1461.3809c-569.71875 -309.8047 -1395.5703 -464.70703 -2477.5625 -464.70703l-1806.1016 0c-30.523438 -0.26953125 -60.859375 -0.40429688 -91.02344 -0.40429688z" fill-rule="evenodd"/><path stroke="#000000" stroke-width="1.0" stroke-linejoin="round" stroke-linecap="butt" d="m102786.26 31409.229c-426.09375 0 -639.1406 178.3418 -639.1406 535.02344l0 357.70312c0 368.9121 213.04688 553.36914 639.1406 553.36914l405.7422 0c421.3047 0 631.96094 -184.45703 631.96094 -553.36914l0 -357.70312c0 -356.68164 -210.65625 -535.02344 -631.96094 -535.02344z" fill-rule="evenodd"/></g></svg>