<svg version="1.1" viewBox="0.0 0.0 96000.0 96000.0" fill="none" stroke="none" stroke-linecap="square" stroke-miterlimit="10" xmlns:xlink="http://www.w3.org/1999/xlink" xmlns="http://www.w3.org/2000/svg"><clipPath id="p.0"><path d="m0 0l96000.0 0l0 96000.0l-96000.0 0l0 -96000.0z" clip-rule="nonzero"/></clipPath><g clip-path="url(#p.0)"><path fill="#000000" fill-opacity="0.0" d="m0 0l96000.0 0l0 96000.0l-96000.0 0z" fill-rule="evenodd"/><path fill="#ff00ff" d="m14356.25 11895.747c-2899.7246 0 -5027.2686 680.38184 -6382.635 2041.1465c-1349.9634 1360.7656 -2024.9473 3493.71 -2024.9473 6398.835c0 2899.7246 680.3823 5029.9707 2041.147 6390.7344c1360.7651 1360.7656 3499.109 2041.1484 6415.0337 2041.1484l6820.0225 0c2354.3398 0 3990.496 461.6875 4908.4727 1385.0625c923.375 917.9785 1385.0645 2554.1367 1385.0645 4908.4746c0 2321.9375 -461.68945 3944.5977 -1385.0645 4867.9727c-917.97656 917.98047 -2554.1328 1376.9648 -4908.4727 1376.9648l-7168.3135 0c-2251.7422 0 -3844.6992 -413.08984 -4778.876 -1239.2656c-928.7744 -831.5781 -1425.563 -2292.2422 -1490.3613 -4381.9883c-32.399414 -399.58984 -164.69727 -715.4844 -396.88965 -947.6758c-232.19287 -232.1914 -548.0845 -348.28906 -947.6753 -348.28906c-394.18848 0 -712.78174 121.49609 -955.7754 364.48828c-242.99365 237.59375 -353.68945 556.1875 -332.0913 955.77734c97.197266 2834.9258 861.2788 4913.871 2292.2402 6236.836c1436.3643 1317.5664 3639.5068 1976.3516 6609.4287 1976.3516l7168.3135 0c3083.3203 0 5337.7617 -707.3828 6763.324 -2122.1484c1430.9629 -1420.1641 2146.4453 -3666.5078 2146.4434 -6739.0234c0 -3067.1191 -715.48047 -5318.8613 -2146.4434 -6755.2266c-1425.5625 -1436.3613 -3680.004 -2154.543 -6763.324 -2154.543l-6820.0225 0c-2186.9434 0 -3709.704 -426.58984 -4568.2812 -1279.7676c-853.1797 -853.17773 -1279.7676 -2365.1387 -1279.7676 -4535.883c0 -2176.1445 423.89062 -3690.8047 1271.667 -4543.9824c847.77734 -853.17773 2357.039 -1279.7666 4527.783 -1279.7666l6965.8184 0c2057.3477 0 3518.0078 380.68945 4381.9863 1142.0703c863.9785 761.3799 1328.3652 2097.8447 1393.1641 4009.3955c32.398438 394.1914 164.69531 707.3828 396.88867 939.5762c232.19531 232.19531 539.9883 348.29102 923.37695 348.29102c415.78906 0 742.4785 -118.796875 980.0742 -356.39062c242.99414 -242.99414 348.29102 -561.584 315.89258 -955.7754c-102.59766 -2672.9316 -831.5801 -4630.381 -2186.9434 -5872.3477c-1349.9668 -1247.3682 -3418.1113 -1871.0518 -6204.4395 -1871.0518z" fill-rule="evenodd"/><path fill="#ff00ff" d="m40083.902 11895.747c-880.1758 0 -1320.2656 440.08887 -1320.2656 1320.2656l0 29434.64c0 880.1758 440.08984 1320.2656 1320.2656 1320.2656c863.97656 0 1295.9648 -440.08984 1295.9648 -1320.2656l0 -11372.107l3685.4062 -3758.3027l12935.363 16053.785c289.28906 363.08594 601.16797 544.6328 935.6406 544.6328c277.3672 0 570.27344 -124.84766 878.71094 -374.53516c664.1836 -545.3906 723.58203 -1158.2734 178.19531 -1838.6523l-13113.559 -16272.48l11145.3125 -11420.705c615.58203 -647.9834 599.3828 -1271.667 -48.601562 -1871.0518c-302.29297 -291.68848 -601.9844 -437.5332 -899.0703 -437.5332c-307.89062 0 -612.9844 156.64355 -915.28125 469.93262l-14782.117 15146.607l0 -14304.2295c0 -880.17676 -431.98828 -1320.2656 -1295.9648 -1320.2656z" fill-rule="evenodd"/><path fill="#ff00ff" d="m76835.484 16026.64l7071.117 16669.371l-14134.133 0l7063.0156 -16669.371zm-72.89844 -4130.8926c-712.78125 0 -1201.4688 340.19043 -1466.0625 1020.57324l-12344.074 29191.645c-313.1914 809.98047 -72.89844 1390.4648 720.8789 1741.457c239.125 96.59766 457.35156 144.90234 654.6797 144.90234c475.52734 0 829.6836 -280.4961 1062.4766 -841.4844l3312.8125 -7840.5977l16296.781 0l3304.711 7840.5977c225.16406 560.9883 573.03906 841.4844 1043.625 841.4844c195.28125 0 411.6875 -48.304688 649.2344 -144.90234c799.1719 -350.9922 1031.3672 -931.47656 696.5781 -1741.457l-12335.977 -29191.645c-286.1953 -664.1826 -769.4844 -1004.374 -1449.8672 -1020.57324z" fill-rule="evenodd"/><path stroke="#000000" stroke-width="1.0" stroke-linejoin="round" stroke-linecap="butt" d="m14356.25 11895.747c-2899.7246 0 -5027.2686 680.38184 -6382.635 2041.1465c-1349.9634 1360.7656 -2024.9473 3493.71 -2024.9473 6398.835c0 2899.7246 680.3823 5029.9707 2041.147 6390.7344c1360.7651 1360.7656 3499.109 2041.1484 6415.0337 2041.1484l6820.0225 0c2354.3398 0 3990.496 461.6875 4908.4727 1385.0625c923.375 917.9785 1385.0645 2554.1367 1385.0645 4908.4746c0 2321.9375 -461.68945 3944.5977 -1385.0645 4867.9727c-917.97656 917.98047 -2554.1328 1376.9648 -4908.4727 1376.9648l-7168.3135 0c-2251.7422 0 -3844.6992 -413.08984 -4778.876 -1239.2656c-928.7744 -831.5781 -1425.563 -2292.2422 -1490.3613 -4381.9883c-32.399414 -399.58984 -164.69727 -715.4844 -396.88965 -947.6758c-232.19287 -232.1914 -548.0845 -348.28906 -947.6753 -348.28906c-394.18848 0 -712.78174 121.49609 -955.7754 364.48828c-242.99365 237.59375 -353.68945 556.1875 -332.0913 955.77734c97.197266 2834.9258 861.2788 4913.871 2292.2402 6236.836c1436.3643 1317.5664 3639.5068 1976.3516 6609.4287 1976.3516l7168.3135 0c3083.3203 0 5337.7617 -707.3828 6763.324 -2122.1484c1430.9629 -1420.1641 2146.4453 -3666.5078 2146.4434 -6739.0234c0 -3067.1191 -715.48047 -5318.8613 -2146.4434 -6755.2266c-1425.5625 -1436.3613 -3680.004 -2154.543 -6763.324 -2154.543l-6820.0225 0c-2186.9434 0 -3709.704 -426.58984 -4568.2812 -1279.7676c-853.1797 -853.17773 -1279.7676 -2365.1387 -1279.7676 -4535.883c0 -2176.1445 423.89062 -3690.8047 1271.667 -4543.9824c847.77734 -853.17773 2357.039 -1279.7666 4527.783 -1279.7666l6965.8184 0c2057.3477 0 3518.0078 380.68945 4381.9863 1142.0703c863.9785 761.3799 1328.3652 2097.8447 1393.1641 4009.3955c32.398438 394.1914 164.69531 707.3828 396.88867 939.5762c232.19531 232.19531 539.9883 348.29102 923.37695 348.29102c415.78906 0 742.4785 -118.796875 980.0742 -356.39062c242.99414 -242.99414 348.29102 -561.584 315.89258 -955.7754c-102.59766 -2672.9316 -831.5801 -4630.381 -2186.9434 -5872.3477c-1349.9668 -1247.3682 -3418.1113 -1871.0518 -6204.4395 -1871.0518z" fill-rule="evenodd"/><path stroke="#000000" stroke-width="1.0" stroke-linejoin="round" stroke-linecap="butt" d="m40083.902 11895.747c-880.1758 0 -1320.2656 440.08887 -1320.2656 1320.2656l0 29434.64c0 880.1758 440.08984 1320.2656 1320.2656 1320.2656c863.97656 0 1295.9648 -440.08984 1295.9648 -1320.2656l0 -11372.107l3685.4062 -3758.3027l12935.363 16053.785c289.28906 363.08594 601.16797 544.6328 935.6406 544.6328c277.3672 0 570.27344 -124.84766 878.71094 -374.53516c664.1836 -545.3906 723.58203 -1158.2734 178.19531 -1838.6523l-13113.559 -16272.48l11145.3125 -11420.705c615.58203 -647.9834 599.3828 -1271.667 -48.601562 -1871.0518c-302.29297 -291.68848 -601.9844 -437.5332 -899.0703 -437.5332c-307.89062 0 -612.9844 156.64355 -915.28125 469.93262l-14782.117 15146.607l0 -14304.2295c0 -880.17676 -431.98828 -1320.2656 -1295.9648 -1320.2656z" fill-rule="evenodd"/><path stroke="#000000" stroke-width="1.0" stroke-linejoin="round" stroke-linecap="butt" d="m76835.484 16026.64l7071.117 16669.371l-14134.133 0l7063.0156 -16669.371zm-72.89844 -4130.8926c-712.78125 0 -1201.4688 340.19043 -1466.0625 1020.57324l-12344.074 29191.645c-313.1914 809.98047 -72.89844 1390.4648 720.8789 1741.457c239.125 96.59766 457.35156 144.90234 654.6797 144.90234c475.52734 0 829.6836 -280.4961 1062.4766 -841.4844l3312.8125 -7840.5977l16296.781 0l3304.711 7840.5977c225.16406 560.9883 573.03906 841.4844 1043.625 841.4844c195.28125 0 411.6875 -48.304688 649.2344 -144.90234c799.1719 -350.9922 1031.3672 -931.47656 696.5781 -1741.457l-12335.977 -29191.645c-286.1953 -664.1826 -769.4844 -1004.374 -1449.8672 -1020.57324z" fill-rule="evenodd"/><path fill="#ff00ff" d="m5792.136 52787.05c-426.59375 0 -639.8921 179.94531 -639.8921 539.83594l0 355.6289c0 371.82812 213.29834 557.7461 639.8921 557.7461l416.5337 0c414.52002 0 621.78174 -185.91797 621.78174 -557.7461l0 -355.6289c0 -359.89062 -207.26172 -539.83594 -621.78174 -539.83594zm211.28516 2883.3906c-327.9961 0 -491.99268 136.45312 -491.99268 409.35547l0 6600.84c0 278.01953 163.99658 417.02734 491.99268 417.02734c321.95947 0 482.9375 -139.00781 482.9375 -417.02734l0 -6600.84c0 -272.90234 -160.97803 -409.35547 -482.9375 -409.35547z" fill-rule="evenodd"/><path fill="#ff00ff" d="m13483.239 53792.285c22.373047 0 44.89258 0.08203125 67.5625 0.2421875l2245.6592 0c710.3203 0 1275.7578 80.16797 1696.3184 240.4961c420.55664 158.625 723.39844 416.1797 908.5254 772.65625c185.125 356.48047 277.68945 835.7656 277.68945 1437.8594l0 3576.7344c0 607.20703 -92.56445 1089.0547 -277.68945 1445.5312c-185.125 356.48047 -487.96484 613.1797 -908.5254 770.09766c-420.55664 156.92188 -985.9961 235.3789 -1696.3184 235.3789l-2224.5303 0c-718.3701 0 -1287.834 -78.45703 -1708.3916 -235.3789c-420.55664 -156.91797 -723.39844 -413.6172 -908.52637 -770.09766c-185.125 -356.48047 -277.68848 -838.3242 -277.68848 -1445.5312l0 -3584.4102c0 -607.21094 92.56348 -1089.9062 277.68848 -1448.0938c185.125 -359.89062 485.95605 -616.58984 902.49023 -770.09766c405.1875 -150.25781 947.10156 -225.38672 1625.7363 -225.38672zm-8.663086 -826.4375c-1289.1426 0 -2236.6514 255.94531 -2842.5273 767.83594c-617.7588 520.22266 -926.6367 1354.2812 -926.6367 2502.1797l0 3584.4102c0 1137.6641 308.87793 1968.3086 926.6367 2491.9453c617.7578 523.6289 1597.7197 785.4453 2939.8818 785.4453l2224.5303 0c1340.1523 0 2318.0996 -261.8164 2933.8457 -785.4453c615.74414 -523.6328 923.6172 -1354.2812 923.6172 -2491.9453l0 -3576.7344c0 -1135.9609 -307.87305 -1965.7539 -923.6172 -2489.3867c-615.7461 -525.33984 -1593.6934 -788.0078 -2933.8457 -788.0078l-2245.6592 0c-25.541016 -0.1953125 -50.94922 -0.296875 -76.225586 -0.296875z" fill-rule="evenodd"/><path fill="#ff00ff" d="m26050.746 52966.145c-1080.5723 0 -1873.3945 214.91016 -2378.4668 644.7344c-503.0586 429.8203 -754.58984 1103.5508 -754.58984 2021.1875c0 915.9297 253.54297 1588.8047 760.62695 2018.6289c507.08398 429.8203 1303.9316 644.73047 2390.541 644.73047l2541.459 0c877.33594 0 1487.043 145.83203 1829.125 437.5c344.0918 289.95703 516.1387 806.76953 516.1387 1550.4297c0 733.4258 -172.04688 1245.9727 -516.1387 1537.6367c-342.08203 289.96094 -951.78906 434.9375 -1829.125 434.9375l-2671.248 0c-839.10547 0 -1432.7148 -130.48047 -1780.832 -391.4453c-346.10547 -262.66797 -531.2324 -724.04297 -555.3789 -1384.1289c-12.072266 -126.21875 -61.373047 -225.9961 -147.89844 -299.33984c-86.52734 -73.34375 -204.24219 -110.015625 -353.14844 -110.015625c-146.89453 0 -265.61523 38.378906 -356.16602 115.13281c-90.55078 75.046875 -131.80273 175.6836 -123.75391 301.89844c36.220703 895.46484 320.95117 1552.1367 854.1953 1970.0195c535.25586 416.17578 1356.25 624.2656 2462.9824 624.2656l2671.248 0c1148.9883 0 1989.0977 -223.4414 2520.3281 -670.3203c533.24414 -448.58203 799.86523 -1158.1328 799.86523 -2128.6406c0 -968.8047 -266.6211 -1680.0586 -799.86523 -2133.7617c-531.23047 -453.69922 -1371.3398 -680.5508 -2520.3281 -680.5508l-2541.459 0c-814.95703 0 -1382.4082 -134.7461 -1702.3555 -404.23828c-317.9336 -269.4922 -476.9004 -747.0703 -476.9004 -1432.7383c0 -687.375 157.96094 -1165.8086 473.8828 -1435.3008c315.91992 -269.4922 878.3418 -404.23828 1687.2617 -404.23828l2595.789 0c766.66406 0 1310.9746 120.25 1632.9336 360.7461c321.95703 240.4961 495.00977 662.6406 519.15625 1266.4375c12.074219 124.51172 61.375 223.4414 147.90039 296.78125c86.52539 73.34375 201.22266 110.015625 344.09375 110.015625c154.9414 0 276.6836 -37.523438 365.2207 -112.57031c90.55078 -76.75391 129.78906 -177.38672 117.7168 -301.90234c-38.23242 -844.29297 -309.88477 -1462.5859 -814.95703 -1854.8867c-503.06055 -394.0039 -1273.748 -591.0039 -2312.0645 -591.0039z" fill-rule="evenodd"/><path fill="#ff00ff" d="m41711.418 57608.84c111.66406 89.734375 232.41406 182.14453 362.23828 277.23438l4255.9766 3182.4727l0 0c-33.804688 101.125 -73.07422 195.01953 -117.80469 281.6875c-181.10156 353.0664 -481.9336 608.0625 -902.4922 764.98047c-420.5547 156.92188 -982.97656 235.3789 -1687.2617 235.3789l-591.59766 0c-718.3711 0 -1286.8281 -76.75391 -1705.375 -230.26172c-416.53125 -155.21484 -716.35547 -409.35547 -899.46875 -762.4219c-181.10156 -354.77344 -271.65234 -833.20703 -271.65234 -1435.3008c0 -665.1992 114.69531 -1176.0391 344.09375 -1532.5195c229.39453 -356.48047 606.6875 -608.0625 1131.8828 -754.7461c28.644531 -8.316406 55.80078 -17.152344 81.46094 -26.503906zm1539.3984 -4548.0312c-945.7539 0 -1644.0 192.73438 -2094.7422 578.21094c-450.7422 385.47656 -676.1133 981.59766 -676.1133 1788.3672c0 324.07422 47.289062 614.8867 141.86328 872.4375c83.07031 220.04297 214.51562 437.5625 394.33594 652.5547l0 0c-570.2031 203.85547 -1002.48047 512.52734 -1296.8242 926.01953c-358.1797 503.16406 -537.2656 1184.5664 -537.2656 2044.2109c0 1137.6641 305.85938 1964.9023 917.5781 2481.711c611.72266 515.10547 1588.6641 772.65625 2930.8281 772.65625l591.59766 0c1336.1289 0 2310.0508 -260.96094 2921.7734 -782.8867c235.83984 -201.22266 426.21875 -447.3203 571.1328 -738.28906l0 0l1107.0742 827.83203c117.23828 87.25781 230.86719 130.88672 340.8828 130.88672c122.23828 0 240.01953 -53.86328 353.33984 -161.58594c217.32031 -204.67969 202.23047 -400.82812 -45.277344 -588.4492l-1475.2539 -1103.1445l0 0c43.789062 -257.96484 65.67969 -537.54297 65.67969 -838.73047l0 -800.7969c0 -272.90234 -160.97656 -409.35547 -482.9375 -409.35547c-327.9922 0 -491.9922 136.45312 -491.9922 409.35547l0 800.7969c0 53.36328 -0.73046875 105.75781 -2.1914062 157.1836l0 0l-3761.6992 -2812.8672c-346.10547 -252.4375 -611.72266 -471.61328 -796.84766 -657.52734c-185.1289 -185.91406 -310.89062 -369.27344 -377.29688 -550.0703c-64.390625 -180.79688 -96.58594 -391.4453 -96.58594 -631.9414c0 -586.7422 130.79297 -990.125 392.38672 -1210.1523c263.60156 -220.02734 732.4531 -330.04297 1406.5547 -330.04297l464.82812 0c593.6094 0 1021.21094 81.01953 1282.8008 243.05469c263.60547 162.03516 423.57812 452.84766 479.92188 872.4375c24.144531 136.44922 74.453125 238.78906 150.91797 307.01562c78.47656 68.22656 197.19922 102.33594 356.16406 102.33594c160.98047 0 282.71875 -38.375 365.22266 -115.12891c84.51172 -76.75391 120.734375 -182.5039 108.66016 -317.25c-80.48828 -654.96875 -343.08594 -1138.5156 -787.79297 -1450.6484c-444.70312 -312.1328 -1096.668 -468.19922 -1955.8945 -468.19922z" fill-rule="evenodd"/><path fill="#ff00ff" d="m61989.863 52958.47c-116.71094 0 -229.39453 26.4375 -338.0547 79.3125c-106.65234 52.875 -182.10938 136.45312 -226.3789 250.73047l-2993.2266 8216.973l-3164.2266 -8240.0c-30.183594 -98.92578 -87.53125 -173.1211 -172.04688 -222.58594c-82.5 -51.16797 -176.07031 -76.75391 -280.70703 -76.75391c-185.125 0 -320.95312 62.253906 -407.47656 186.76953c-86.52734 122.80469 -105.64453 243.90625 -57.351562 363.30078l3552.6094 9259.086c80.49219 214.91016 237.44531 322.36328 470.86328 322.36328c142.8711 0 260.58594 -20.464844 353.14844 -61.402344c92.56641 -42.640625 160.98047 -129.6289 205.25 -260.96094l3044.0781 -8294.59l3046.9688 8294.59c74.453125 214.91016 244.48828 322.36328 510.10547 322.36328l36.222656 0c259.57812 0 429.60938 -107.453125 510.10156 -322.36328l3561.664 -9259.086c48.289062 -126.21875 34.203125 -249.02344 -42.257812 -368.41797c-76.46875 -121.10156 -220.34375 -181.65234 -431.625 -181.65234c-104.640625 0 -196.19531 25.585938 -274.67188 76.75391c-76.46875 49.464844 -135.82812 123.66016 -178.08594 222.58594l-3164.2266 8240.0l-2993.2227 -8216.973c-32.195312 -114.27734 -103.63281 -197.85547 -214.30469 -250.73047c-110.671875 -52.875 -228.39062 -79.3125 -353.14844 -79.3125z" fill-rule="evenodd"/><path fill="#ff00ff" d="m72152.85 52966.145c-327.9922 0 -491.9922 139.00781 -491.9922 417.03125l0 9297.461c0 278.01953 164.0 417.02734 491.9922 417.02734l6945.25 0c327.9922 0 491.9922 -139.00781 491.9922 -417.02734c0 -272.90234 -164.0 -409.35547 -491.9922 -409.35547l-6462.3125 0l0 -3888.8672l4274.0 0c328.0 0 491.9922 -139.00781 491.9922 -417.02734c0 -272.90625 -163.99219 -409.35547 -491.9922 -409.35547l-4274.0 0l0 -3763.504l6462.3125 0c327.9922 0 491.9922 -136.44922 491.9922 -409.35156c0 -278.02344 -164.0 -417.03125 -491.9922 -417.03125z" fill-rule="evenodd"/><path fill="#ff00ff" d="m87397.95 53792.527c629.83594 0 1085.6094 115.13281 1367.3203 345.39453c281.71094 230.26172 422.5703 607.20703 422.5703 1130.8398l0 424.70703c0 513.39844 -134.82031 892.0508 -404.46094 1135.957c-267.625 243.90625 -683.15625 365.85938 -1246.5781 365.85938l-4497.3594 0l0 -3402.7578zm241.46875 4226.586c790.8125 0 1360.2812 147.53906 1708.3984 442.61328c350.125 293.3711 525.1875 770.09766 525.1875 1430.1836l0 493.78125c0 660.08594 -176.07031 1139.3711 -528.21094 1437.8594c-352.14062 298.48828 -920.60156 447.73047 -1705.375 447.73047l-4599.9766 0l0 -4252.168zm-5082.914 -5052.9688c-327.9922 0 -491.9922 139.00781 -491.9922 417.03125l0 9297.461c0 278.01953 164.0 417.02734 491.9922 417.02734l5082.914 0c1056.4297 0 1855.2891 -229.40625 2396.5781 -688.22656c541.2969 -458.8164 811.9375 -1133.3984 811.9375 -2023.7461l0 -493.78125c0 -1258.7656 -541.28906 -2076.621 -1623.875 -2453.5703c623.7969 -341.1289 935.6953 -922.75 935.6953 -1744.8711l0 -424.70703c0 -753.89453 -233.42188 -1326.1367 -700.2656 -1716.7305c-466.83594 -390.58984 -1154.0156 -585.8867 -2061.539 -585.8867z" fill-rule="evenodd"/><path fill="#ff00ff" d="m10602.899 71796.445c-1080.5723 0 -1873.3955 214.91406 -2378.4668 644.7344c-503.06104 429.8203 -754.58984 1103.5547 -754.58984 2021.1875c0 915.9297 253.54199 1588.8047 760.62695 2018.6328c507.08398 429.8203 1303.9307 644.7344 2390.54 644.7344l2541.458 0c877.3379 0 1487.0459 145.82812 1829.126 437.4922c344.09277 289.96094 516.13965 806.77344 516.13965 1550.4297c0 733.4297 -172.04688 1245.9766 -516.13965 1537.6406c-342.08008 289.96094 -951.7881 434.9375 -1829.126 434.9375l-2671.247 0c-839.1045 0 -1432.7158 -130.48438 -1780.832 -391.4453c-346.10645 -262.67188 -531.23145 -724.0469 -555.3784 -1384.125c-12.073242 -126.21875 -61.37207 -226.0 -147.89941 -299.34375c-86.52734 -73.34375 -204.24316 -110.015625 -353.14795 -110.015625c-146.89453 0 -265.61572 38.375 -356.1665 115.13281c-90.55078 75.046875 -131.80273 175.67969 -123.75293 301.89844c36.220703 895.46094 320.95117 1552.1328 854.1958 1970.0156c535.2549 416.1797 1356.248 624.2656 2462.9814 624.2656l2671.247 0c1148.9902 0 1989.0996 -223.4375 2520.33 -670.3125c533.2451 -448.58594 799.8662 -1158.1328 799.8662 -2128.6484c0 -968.8047 -266.6211 -1680.0547 -799.8662 -2133.7578c-531.23047 -453.70312 -1371.3398 -680.5547 -2520.33 -680.5547l-2541.458 0c-814.95703 0 -1382.4082 -134.74219 -1702.3545 -404.23438c-317.93262 -269.4922 -476.9004 -747.0703 -476.9004 -1432.7422c0 -687.375 157.95898 -1165.8047 473.88184 -1435.2969c315.92285 -269.4922 878.3428 -404.23438 1687.2627 -404.23438l2595.789 0c766.6631 0 1310.9727 120.24219 1632.9326 360.7422c321.95898 240.49219 495.01074 662.6406 519.1572 1266.4375c12.074219 124.515625 61.373047 223.44531 147.89941 296.78125c86.52734 73.34375 201.22559 110.015625 344.09375 110.015625c154.9414 0 276.68066 -37.523438 365.2207 -112.57031c90.55078 -76.75781 129.79004 -177.39062 117.7168 -301.89844c-38.234375 -844.2969 -309.88574 -1462.5938 -814.95703 -1854.8906c-503.06152 -394.0 -1273.748 -591.0078 -2312.0635 -591.0078z" fill-rule="evenodd"/><path fill="#ff00ff" d="m20190.223 71796.445c-327.9961 0 -491.9922 139.01562 -491.9922 417.03125l0 9297.461c0 278.02344 163.9961 417.03125 491.9922 417.03125l6945.244 0c327.99414 0 491.9922 -139.00781 491.9922 -417.03125c0 -272.89844 -163.99805 -409.35156 -491.9922 -409.35156l-6462.3066 0l0 -3888.8672l4273.996 0c327.99414 0 491.9922 -139.00781 491.9922 -417.03125c0 -272.89844 -163.99805 -409.35156 -491.9922 -409.35156l-4273.996 0l0 -3763.5l6462.3066 0c327.99414 0 491.9922 -136.45312 491.9922 -409.35938c0 -278.01562 -163.99805 -417.03125 -491.9922 -417.03125z" fill-rule="evenodd"/><path fill="#ff00ff" d="m34934.277 72622.836c778.7344 0 1345.1797 150.94531 1699.3359 452.84375c356.16406 300.1953 534.25 782.8906 534.25 1448.0938l0 470.7578c0 661.78906 -178.08594 1143.6328 -534.25 1445.5312c-354.15625 300.1953 -920.60156 450.28906 -1699.3359 450.28906l-3857.4648 0l0 -4267.5156zm-4340.4023 -826.3906c-327.99414 0 -491.9922 139.01562 -491.9922 417.03125l0 9297.461c0 278.02344 163.99805 417.03125 491.9922 417.03125c321.95898 0 482.9375 -139.00781 482.9375 -417.03125l0 -3796.7578l3401.6914 0l3042.5078 4103.7734c86.52344 110.86719 185.125 176.53906 295.79688 197.00781c26.003906 4.71875 52.597656 7.0859375 79.78125 7.0859375c90.609375 0 187.76953 -26.242188 291.47656 -78.72656c277.6914 -136.45312 330.0078 -324.92188 156.95703 -565.4219l-2734.6367 -3694.4219c835.08203 -98.92969 1465.918 -373.53906 1892.5117 -823.8281c426.59766 -451.9922 639.89453 -1073.7031 639.89453 -1865.1172l0 -470.7578c0 -895.46094 -270.64844 -1573.4609 -811.9414 -2033.9844c-541.28906 -462.22656 -1340.1484 -693.34375 -2396.5742 -693.34375z" fill-rule="evenodd"/><path fill="#ff00ff" d="m39979.19 71804.42c-43.753906 0 -90.49219 5.015625 -140.20703 15.0546875c-148.90234 27.289062 -265.61328 90.39844 -350.1289 189.32812c-82.5 98.921875 -83.50781 225.14062 -3.015625 378.64844l4814.2812 9256.523c92.5625 189.32812 243.48047 283.9922 452.7539 283.9922l102.625 0c223.35938 0 381.3164 -94.66406 473.8828 -283.9922l4829.375 -9256.523c74.44922 -153.50781 74.44922 -279.72656 0 -378.64844c-74.453125 -98.92969 -191.16406 -162.03906 -350.1328 -189.32812c-51.29297 -10.0390625 -99.44922 -15.0546875 -144.47656 -15.0546875c-184.60547 0 -316.54297 84.328125 -395.8086 252.99219l-4436.035 8582.273l0 0l-4465.1055 -8582.273c-79.265625 -168.66406 -208.60156 -252.99219 -388.0078 -252.99219z" fill-rule="evenodd"/><path fill="#ff00ff" d="m52690.047 71788.77c-154.9414 0 -275.67578 36.671875 -362.20312 110.015625c-86.52344 73.34375 -129.78906 175.67969 -129.78906 307.01562l0 9305.133c0 131.33594 43.265625 233.67188 129.78906 307.01562c86.52734 73.34375 207.26172 110.015625 362.20312 110.015625c148.90625 0 266.6211 -36.671875 353.14844 -110.015625c86.52734 -73.34375 129.78906 -175.67969 129.78906 -307.01562l0 -9305.133c0 -131.33594 -43.26172 -233.67188 -129.78906 -307.01562c-86.52734 -73.34375 -204.24219 -110.015625 -353.14844 -110.015625z" fill-rule="evenodd"/><path fill="#ff00ff" d="m60237.43 71796.445c-1334.1172 0 -2309.0469 259.2578 -2924.793 777.77344c-613.73047 518.5156 -920.59766 1351.7266 -920.59766 2499.625l0 3576.7344c0 1137.6641 308.8789 1968.3125 926.6367 2491.9453c617.7578 523.6328 1597.7188 785.4453 2939.8828 785.4453l2224.5273 0c1136.918 0 1983.0625 -200.41406 2538.4414 -601.2344c557.3867 -400.82812 864.2539 -1043.8594 920.59766 -1929.0859c18.109375 -136.45312 -15.0859375 -242.20312 -99.60156 -317.25c-82.50781 -76.75781 -204.24219 -115.13281 -365.22266 -115.13281c-309.88672 0 -479.91797 139.00781 -510.10156 417.03125c-42.257812 649.85156 -252.53906 1099.2891 -630.83984 1348.3125c-376.28906 247.32031 -994.04297 370.97656 -1853.2734 370.97656l-2224.5273 0c-718.3711 0 -1287.8359 -78.46094 -1708.3945 -235.38281c-420.5547 -156.91406 -723.39844 -413.60938 -908.52344 -770.09375c-185.125 -356.47656 -277.6914 -838.3203 -277.6914 -1445.5312l0 -3576.7344c0 -607.21094 90.55078 -1089.9062 271.65234 -1448.0938c183.11719 -359.89062 484.95312 -616.58594 905.5078 -770.09375c420.5586 -155.21875 986.0 -232.82031 1696.3203 -232.82031l2245.6562 0c859.22656 0 1476.9844 124.50781 1853.2734 373.53125c378.30078 249.02344 588.58203 698.46094 630.83984 1348.3125c30.183594 276.3125 200.21484 414.46875 510.10156 414.46875c160.98047 0 282.72266 -36.671875 365.22266 -110.00781c84.515625 -73.34375 117.71094 -180.80469 99.60156 -322.3672c-56.335938 -885.2344 -363.20312 -1528.2578 -920.59766 -1929.0859c-555.3789 -400.82812 -1401.5234 -601.2422 -2538.4414 -601.2422z" fill-rule="evenodd"/><path fill="#ff00ff" d="m69473.125 71796.445c-327.9922 0 -491.9922 139.01562 -491.9922 417.03125l0 9297.461c0 278.02344 164.0 417.03125 491.9922 417.03125l6945.242 0c328.0 0 491.9922 -139.00781 491.9922 -417.03125c0 -272.89844 -163.99219 -409.35156 -491.9922 -409.35156l-6462.3047 0l0 -3888.8672l4273.992 0c328.0 0 492.0 -139.00781 492.0 -417.03125c0 -272.89844 -164.0 -409.35156 -492.0 -409.35156l-4273.992 0l0 -3763.5l6462.3047 0c328.0 0 491.9922 -136.45312 491.9922 -409.35938c0 -278.01562 -163.99219 -417.03125 -491.9922 -417.03125z" fill-rule="evenodd"/><path fill="#ff00ff" d="m82566.13 71796.445c-1080.5703 0 -1873.3906 214.91406 -2378.461 644.7344c-503.0625 429.8203 -754.59375 1103.5547 -754.59375 2021.1875c0 915.9297 253.53906 1588.8047 760.625 2018.6328c507.08594 429.8203 1303.9297 644.7344 2390.539 644.7344l2541.461 0c877.33594 0 1487.0469 145.82812 1829.125 437.4922c344.09375 289.96094 516.1406 806.77344 516.1406 1550.4297c0 733.4297 -172.04688 1245.9766 -516.1406 1537.6406c-342.07812 289.96094 -951.78906 434.9375 -1829.125 434.9375l-2671.25 0c-839.10156 0 -1432.7109 -130.48438 -1780.8281 -391.4453c-346.10938 -262.67188 -531.2344 -724.0469 -555.375 -1384.125c-12.078125 -126.21875 -61.375 -226.0 -147.90625 -299.34375c-86.52344 -73.34375 -204.24219 -110.015625 -353.14844 -110.015625c-146.89062 0 -265.60938 38.375 -356.16406 115.13281c-90.546875 75.046875 -131.80469 175.67969 -123.75 301.89844c36.21875 895.46094 320.95312 1552.1328 854.1953 1970.0156c535.25 416.1797 1356.25 624.2656 2462.9766 624.2656l2671.25 0c1148.9922 0 1989.1016 -223.4375 2520.3281 -670.3125c533.25 -448.58594 799.8672 -1158.1328 799.8672 -2128.6484c0 -968.8047 -266.6172 -1680.0547 -799.8672 -2133.7578c-531.22656 -453.70312 -1371.3359 -680.5547 -2520.3281 -680.5547l-2541.461 0c-814.9531 0 -1382.4062 -134.74219 -1702.3516 -404.23438c-317.9297 -269.4922 -476.89844 -747.0703 -476.89844 -1432.7422c0 -687.375 157.96094 -1165.8047 473.8828 -1435.2969c315.92188 -269.4922 878.34375 -404.23438 1687.2578 -404.23438l2595.789 0c766.66406 0 1310.9766 120.24219 1632.9375 360.7422c321.95312 240.49219 495.0078 662.6406 519.15625 1266.4375c12.0703125 124.515625 61.375 223.44531 147.89844 296.78125c86.52344 73.34375 201.22656 110.015625 344.09375 110.015625c154.9375 0 276.6797 -37.523438 365.21875 -112.57031c90.55469 -76.75781 129.78906 -177.39062 117.71875 -301.89844c-38.234375 -844.2969 -309.8828 -1462.5938 -814.96094 -1854.8906c-503.0547 -394.0 -1273.7422 -591.0078 -2312.0625 -591.0078z" fill-rule="evenodd"/><path stroke="#000000" stroke-width="1.0" stroke-linejoin="round" stroke-linecap="butt" d="m5792.136 52787.05c-426.59375 0 -639.8921 179.94531 -639.8921 539.83594l0 355.6289c0 371.82812 213.29834 557.7461 639.8921 557.7461l416.5337 0c414.52002 0 621.78174 -185.91797 621.78174 -557.7461l0 -355.6289c0 -359.89062 -207.26172 -539.83594 -621.78174 -539.83594zm211.28516 2883.3906c-327.9961 0 -491.99268 136.45312 -491.99268 409.35547l0 6600.84c0 278.01953 163.99658 417.02734 491.99268 417.02734c321.95947 0 482.9375 -139.00781 482.9375 -417.02734l0 -6600.84c0 -272.90234 -160.97803 -409.35547 -482.9375 -409.35547z" fill-rule="evenodd"/><path stroke="#000000" stroke-width="1.0" stroke-linejoin="round" stroke-linecap="butt" d="m13483.239 53792.285c22.373047 0 44.89258 0.08203125 67.5625 0.2421875l2245.6592 0c710.3203 0 1275.7578 80.16797 1696.3184 240.4961c420.55664 158.625 723.39844 416.1797 908.5254 772.65625c185.125 356.48047 277.68945 835.7656 277.68945 1437.8594l0 3576.7344c0 607.20703 -92.56445 1089.0547 -277.68945 1445.5312c-185.125 356.48047 -487.96484 613.1797 -908.5254 770.09766c-420.55664 156.92188 -985.9961 235.3789 -1696.3184 235.3789l-2224.5303 0c-718.3701 0 -1287.834 -78.45703 -1708.3916 -235.3789c-420.55664 -156.91797 -723.39844 -413.6172 -908.52637 -770.09766c-185.125 -356.48047 -277.68848 -838.3242 -277.68848 -1445.5312l0 -3584.4102c0 -607.21094 92.56348 -1089.9062 277.68848 -1448.0938c185.125 -359.89062 485.95605 -616.58984 902.49023 -770.09766c405.1875 -150.25781 947.10156 -225.38672 1625.7363 -225.38672zm-8.663086 -826.4375c-1289.1426 0 -2236.6514 255.94531 -2842.5273 767.83594c-617.7588 520.22266 -926.6367 1354.2812 -926.6367 2502.1797l0 3584.4102c0 1137.6641 308.87793 1968.3086 926.6367 2491.9453c617.7578 523.6289 1597.7197 785.4453 2939.8818 785.4453l2224.5303 0c1340.1523 0 2318.0996 -261.8164 2933.8457 -785.4453c615.74414 -523.6328 923.6172 -1354.2812 923.6172 -2491.9453l0 -3576.7344c0 -1135.9609 -307.87305 -1965.7539 -923.6172 -2489.3867c-615.7461 -525.33984 -1593.6934 -788.0078 -2933.8457 -788.0078l-2245.6592 0c-25.541016 -0.1953125 -50.94922 -0.296875 -76.225586 -0.296875z" fill-rule="evenodd"/><path stroke="#000000" stroke-width="1.0" stroke-linejoin="round" stroke-linecap="butt" d="m26050.746 52966.145c-1080.5723 0 -1873.3945 214.91016 -2378.4668 644.7344c-503.0586 429.8203 -754.58984 1103.5508 -754.58984 2021.1875c0 915.9297 253.54297 1588.8047 760.62695 2018.6289c507.08398 429.8203 1303.9316 644.73047 2390.541 644.73047l2541.459 0c877.33594 0 1487.043 145.83203 1829.125 437.5c344.0918 289.95703 516.1387 806.76953 516.1387 1550.4297c0 733.4258 -172.04688 1245.9727 -516.1387 1537.6367c-342.08203 289.96094 -951.78906 434.9375 -1829.125 434.9375l-2671.248 0c-839.10547 0 -1432.7148 -130.48047 -1780.832 -391.4453c-346.10547 -262.66797 -531.2324 -724.04297 -555.3789 -1384.1289c-12.072266 -126.21875 -61.373047 -225.9961 -147.89844 -299.33984c-86.52734 -73.34375 -204.24219 -110.015625 -353.14844 -110.015625c-146.89453 0 -265.61523 38.378906 -356.16602 115.13281c-90.55078 75.046875 -131.80273 175.6836 -123.75391 301.89844c36.220703 895.46484 320.95117 1552.1367 854.1953 1970.0195c535.25586 416.17578 1356.25 624.2656 2462.9824 624.2656l2671.248 0c1148.9883 0 1989.0977 -223.4414 2520.3281 -670.3203c533.24414 -448.58203 799.86523 -1158.1328 799.86523 -2128.6406c0 -968.8047 -266.6211 -1680.0586 -799.86523 -2133.7617c-531.23047 -453.69922 -1371.3398 -680.5508 -2520.3281 -680.5508l-2541.459 0c-814.95703 0 -1382.4082 -134.7461 -1702.3555 -404.23828c-317.9336 -269.4922 -476.9004 -747.0703 -476.9004 -1432.7383c0 -687.375 157.96094 -1165.8086 473.8828 -1435.3008c315.91992 -269.4922 878.3418 -404.23828 1687.2617 -404.23828l2595.789 0c766.66406 0 1310.9746 120.25 1632.9336 360.7461c321.95703 240.4961 495.00977 662.6406 519.15625 1266.4375c12.074219 124.51172 61.375 223.4414 147.90039 296.78125c86.52539 73.34375 201.22266 110.015625 344.09375 110.015625c154.9414 0 276.6836 -37.523438 365.2207 -112.57031c90.55078 -76.75391 129.78906 -177.38672 117.7168 -301.90234c-38.23242 -844.29297 -309.88477 -1462.5859 -814.95703 -1854.8867c-503.06055 -394.0039 -1273.748 -591.0039 -2312.0645 -591.0039z" fill-rule="evenodd"/><path stroke="#000000" stroke-width="1.0" stroke-linejoin="round" stroke-linecap="butt" d="m41711.418 57608.84c111.66406 89.734375 232.41406 182.14453 362.23828 277.23438l4255.9766 3182.4727l0 0c-33.804688 101.125 -73.07422 195.01953 -117.80469 281.6875c-181.10156 353.0664 -481.9336 608.0625 -902.4922 764.98047c-420.5547 156.92188 -982.97656 235.3789 -1687.2617 235.3789l-591.59766 0c-718.3711 0 -1286.8281 -76.75391 -1705.375 -230.26172c-416.53125 -155.21484 -716.35547 -409.35547 -899.46875 -762.4219c-181.10156 -354.77344 -271.65234 -833.20703 -271.65234 -1435.3008c0 -665.1992 114.69531 -1176.0391 344.09375 -1532.5195c229.39453 -356.48047 606.6875 -608.0625 1131.8828 -754.7461c28.644531 -8.316406 55.80078 -17.152344 81.46094 -26.503906zm1539.3984 -4548.0312c-945.7539 0 -1644.0 192.73438 -2094.7422 578.21094c-450.7422 385.47656 -676.1133 981.59766 -676.1133 1788.3672c0 324.07422 47.289062 614.8867 141.86328 872.4375c83.07031 220.04297 214.51562 437.5625 394.33594 652.5547l0 0c-570.2031 203.85547 -1002.48047 512.52734 -1296.8242 926.01953c-358.1797 503.16406 -537.2656 1184.5664 -537.2656 2044.2109c0 1137.6641 305.85938 1964.9023 917.5781 2481.711c611.72266 515.10547 1588.6641 772.65625 2930.8281 772.65625l591.59766 0c1336.1289 0 2310.0508 -260.96094 2921.7734 -782.8867c235.83984 -201.22266 426.21875 -447.3203 571.1328 -738.28906l0 0l1107.0742 827.83203c117.23828 87.25781 230.86719 130.88672 340.8828 130.88672c122.23828 0 240.01953 -53.86328 353.33984 -161.58594c217.32031 -204.67969 202.23047 -400.82812 -45.277344 -588.4492l-1475.2539 -1103.1445l0 0c43.789062 -257.96484 65.67969 -537.54297 65.67969 -838.73047l0 -800.7969c0 -272.90234 -160.97656 -409.35547 -482.9375 -409.35547c-327.9922 0 -491.9922 136.45312 -491.9922 409.35547l0 800.7969c0 53.36328 -0.73046875 105.75781 -2.1914062 157.1836l0 0l-3761.6992 -2812.8672c-346.10547 -252.4375 -611.72266 -471.61328 -796.84766 -657.52734c-185.1289 -185.91406 -310.89062 -369.27344 -377.29688 -550.0703c-64.390625 -180.79688 -96.58594 -391.4453 -96.58594 -631.9414c0 -586.7422 130.79297 -990.125 392.38672 -1210.1523c263.60156 -220.02734 732.4531 -330.04297 1406.5547 -330.04297l464.82812 0c593.6094 0 1021.21094 81.01953 1282.8008 243.05469c263.60547 162.03516 423.57812 452.84766 479.92188 872.4375c24.144531 136.44922 74.453125 238.78906 150.91797 307.01562c78.47656 68.22656 197.19922 102.33594 356.16406 102.33594c160.98047 0 282.71875 -38.375 365.22266 -115.12891c84.51172 -76.75391 120.734375 -182.5039 108.66016 -317.25c-80.48828 -654.96875 -343.08594 -1138.5156 -787.79297 -1450.6484c-444.70312 -312.1328 -1096.668 -468.19922 -1955.8945 -468.19922z" fill-rule="evenodd"/><path stroke="#000000" stroke-width="1.0" stroke-linejoin="round" stroke-linecap="butt" d="m61989.863 52958.47c-116.71094 0 -229.39453 26.4375 -338.0547 79.3125c-106.65234 52.875 -182.10938 136.45312 -226.3789 250.73047l-2993.2266 8216.973l-3164.2266 -8240.0c-30.183594 -98.92578 -87.53125 -173.1211 -172.04688 -222.58594c-82.5 -51.16797 -176.07031 -76.75391 -280.70703 -76.75391c-185.125 0 -320.95312 62.253906 -407.47656 186.76953c-86.52734 122.80469 -105.64453 243.90625 -57.351562 363.30078l3552.6094 9259.086c80.49219 214.91016 237.44531 322.36328 470.86328 322.36328c142.8711 0 260.58594 -20.464844 353.14844 -61.402344c92.56641 -42.640625 160.98047 -129.6289 205.25 -260.96094l3044.0781 -8294.59l3046.9688 8294.59c74.453125 214.91016 244.48828 322.36328 510.10547 322.36328l36.222656 0c259.57812 0 429.60938 -107.453125 510.10156 -322.36328l3561.664 -9259.086c48.289062 -126.21875 34.203125 -249.02344 -42.257812 -368.41797c-76.46875 -121.10156 -220.34375 -181.65234 -431.625 -181.65234c-104.640625 0 -196.19531 25.585938 -274.67188 76.75391c-76.46875 49.464844 -135.82812 123.66016 -178.08594 222.58594l-3164.2266 8240.0l-2993.2227 -8216.973c-32.195312 -114.27734 -103.63281 -197.85547 -214.30469 -250.73047c-110.671875 -52.875 -228.39062 -79.3125 -353.14844 -79.3125z" fill-rule="evenodd"/><path stroke="#000000" stroke-width="1.0" stroke-linejoin="round" stroke-linecap="butt" d="m72152.85 52966.145c-327.9922 0 -491.9922 139.00781 -491.9922 417.03125l0 9297.461c0 278.01953 164.0 417.02734 491.9922 417.02734l6945.25 0c327.9922 0 491.9922 -139.00781 491.9922 -417.02734c0 -272.90234 -164.0 -409.35547 -491.9922 -409.35547l-6462.3125 0l0 -3888.8672l4274.0 0c328.0 0 491.9922 -139.00781 491.9922 -417.02734c0 -272.90625 -163.99219 -409.35547 -491.9922 -409.35547l-4274.0 0l0 -3763.504l6462.3125 0c327.9922 0 491.9922 -136.44922 491.9922 -409.35156c0 -278.02344 -164.0 -417.03125 -491.9922 -417.03125z" fill-rule="evenodd"/><path stroke="#000000" stroke-width="1.0" stroke-linejoin="round" stroke-linecap="butt" d="m87397.95 53792.527c629.83594 0 1085.6094 115.13281 1367.3203 345.39453c281.71094 230.26172 422.5703 607.20703 422.5703 1130.8398l0 424.70703c0 513.39844 -134.82031 892.0508 -404.46094 1135.957c-267.625 243.90625 -683.15625 365.85938 -1246.5781 365.85938l-4497.3594 0l0 -3402.7578zm241.46875 4226.586c790.8125 0 1360.2812 147.53906 1708.3984 442.61328c350.125 293.3711 525.1875 770.09766 525.1875 1430.1836l0 493.78125c0 660.08594 -176.07031 1139.3711 -528.21094 1437.8594c-352.14062 298.48828 -920.60156 447.73047 -1705.375 447.73047l-4599.9766 0l0 -4252.168zm-5082.914 -5052.9688c-327.9922 0 -491.9922 139.00781 -491.9922 417.03125l0 9297.461c0 278.01953 164.0 417.02734 491.9922 417.02734l5082.914 0c1056.4297 0 1855.2891 -229.40625 2396.5781 -688.22656c541.2969 -458.8164 811.9375 -1133.3984 811.9375 -2023.7461l0 -493.78125c0 -1258.7656 -541.28906 -2076.621 -1623.875 -2453.5703c623.7969 -341.1289 935.6953 -922.75 935.6953 -1744.8711l0 -424.70703c0 -753.89453 -233.42188 -1326.1367 -700.2656 -1716.7305c-466.83594 -390.58984 -1154.0156 -585.8867 -2061.539 -585.8867z" fill-rule="evenodd"/><path stroke="#000000" stroke-width="1.0" stroke-linejoin="round" stroke-linecap="butt" d="m10602.899 71796.445c-1080.5723 0 -1873.3955 214.91406 -2378.4668 644.7344c-503.06104 429.8203 -754.58984 1103.5547 -754.58984 2021.1875c0 915.9297 253.54199 1588.8047 760.62695 2018.6328c507.08398 429.8203 1303.9307 644.7344 2390.54 644.7344l2541.458 0c877.3379 0 1487.0459 145.82812 1829.126 437.4922c344.09277 289.96094 516.13965 806.77344 516.13965 1550.4297c0 733.4297 -172.04688 1245.9766 -516.13965 1537.6406c-342.08008 289.96094 -951.7881 434.9375 -1829.126 434.9375l-2671.247 0c-839.1045 0 -1432.7158 -130.48438 -1780.832 -391.4453c-346.10645 -262.67188 -531.23145 -724.0469 -555.3784 -1384.125c-12.073242 -126.21875 -61.37207 -226.0 -147.89941 -299.34375c-86.52734 -73.34375 -204.24316 -110.015625 -353.14795 -110.015625c-146.89453 0 -265.61572 38.375 -356.1665 115.13281c-90.55078 75.046875 -131.80273 175.67969 -123.75293 301.89844c36.220703 895.46094 320.95117 1552.1328 854.1958 1970.0156c535.2549 416.1797 1356.248 624.2656 2462.9814 624.2656l2671.247 0c1148.9902 0 1989.0996 -223.4375 2520.33 -670.3125c533.2451 -448.58594 799.8662 -1158.1328 799.8662 -2128.6484c0 -968.8047 -266.6211 -1680.0547 -799.8662 -2133.7578c-531.23047 -453.70312 -1371.3398 -680.5547 -2520.33 -680.5547l-2541.458 0c-814.95703 0 -1382.4082 -134.74219 -1702.3545 -404.23438c-317.93262 -269.4922 -476.9004 -747.0703 -476.9004 -1432.7422c0 -687.375 157.95898 -1165.8047 473.88184 -1435.2969c315.92285 -269.4922 878.3428 -404.23438 1687.2627 -404.23438l2595.789 0c766.6631 0 1310.9727 120.24219 1632.9326 360.7422c321.95898 240.49219 495.01074 662.6406 519.1572 1266.4375c12.074219 124.515625 61.373047 223.44531 147.89941 296.78125c86.52734 73.34375 201.22559 110.015625 344.09375 110.015625c154.9414 0 276.68066 -37.523438 365.2207 -112.57031c90.55078 -76.75781 129.79004 -177.39062 117.7168 -301.89844c-38.234375 -844.2969 -309.88574 -1462.5938 -814.95703 -1854.8906c-503.06152 -394.0 -1273.748 -591.0078 -2312.0635 -591.0078z" fill-rule="evenodd"/><path stroke="#000000" stroke-width="1.0" stroke-linejoin="round" stroke-linecap="butt" d="m20190.223 71796.445c-327.9961 0 -491.9922 139.01562 -491.9922 417.03125l0 9297.461c0 278.02344 163.9961 417.03125 491.9922 417.03125l6945.244 0c327.99414 0 491.9922 -139.00781 491.9922 -417.03125c0 -272.89844 -163.99805 -409.35156 -491.9922 -409.35156l-6462.3066 0l0 -3888.8672l4273.996 0c327.99414 0 491.9922 -139.00781 491.9922 -417.03125c0 -272.89844 -163.99805 -409.35156 -491.9922 -409.35156l-4273.996 0l0 -3763.5l6462.3066 0c327.99414 0 491.9922 -136.45312 491.9922 -409.35938c0 -278.01562 -163.99805 -417.03125 -491.9922 -417.03125z" fill-rule="evenodd"/><path stroke="#000000" stroke-width="1.0" stroke-linejoin="round" stroke-linecap="butt" d="m34934.277 72622.836c778.7344 0 1345.1797 150.94531 1699.3359 452.84375c356.16406 300.1953 534.25 782.8906 534.25 1448.0938l0 470.7578c0 661.78906 -178.08594 1143.6328 -534.25 1445.5312c-354.15625 300.1953 -920.60156 450.28906 -1699.3359 450.28906l-3857.4648 0l0 -4267.5156zm-4340.4023 -826.3906c-327.99414 0 -491.9922 139.01562 -491.9922 417.03125l0 9297.461c0 278.02344 163.99805 417.03125 491.9922 417.03125c321.95898 0 482.9375 -139.00781 482.9375 -417.03125l0 -3796.7578l3401.6914 0l3042.5078 4103.7734c86.52344 110.86719 185.125 176.53906 295.79688 197.00781c26.003906 4.71875 52.597656 7.0859375 79.78125 7.0859375c90.609375 0 187.76953 -26.242188 291.47656 -78.72656c277.6914 -136.45312 330.0078 -324.92188 156.95703 -565.4219l-2734.6367 -3694.4219c835.08203 -98.92969 1465.918 -373.53906 1892.5117 -823.8281c426.59766 -451.9922 639.89453 -1073.7031 639.89453 -1865.1172l0 -470.7578c0 -895.46094 -270.64844 -1573.4609 -811.9414 -2033.9844c-541.28906 -462.22656 -1340.1484 -693.34375 -2396.5742 -693.34375z" fill-rule="evenodd"/><path stroke="#000000" stroke-width="1.0" stroke-linejoin="round" stroke-linecap="butt" d="m39979.19 71804.42c-43.753906 0 -90.49219 5.015625 -140.20703 15.0546875c-148.90234 27.289062 -265.61328 90.39844 -350.1289 189.32812c-82.5 98.921875 -83.50781 225.14062 -3.015625 378.64844l4814.2812 9256.523c92.5625 189.32812 243.48047 283.9922 452.7539 283.9922l102.625 0c223.35938 0 381.3164 -94.66406 473.8828 -283.9922l4829.375 -9256.523c74.44922 -153.50781 74.44922 -279.72656 0 -378.64844c-74.453125 -98.92969 -191.16406 -162.03906 -350.1328 -189.32812c-51.29297 -10.0390625 -99.44922 -15.0546875 -144.47656 -15.0546875c-184.60547 0 -316.54297 84.328125 -395.8086 252.99219l-4436.035 8582.273l0 0l-4465.1055 -8582.273c-79.265625 -168.66406 -208.60156 -252.99219 -388.0078 -252.99219z" fill-rule="evenodd"/><path stroke="#000000" stroke-width="1.0" stroke-linejoin="round" stroke-linecap="butt" d="m52690.047 71788.77c-154.9414 0 -275.67578 36.671875 -362.20312 110.015625c-86.52344 73.34375 -129.78906 175.67969 -129.78906 307.01562l0 9305.133c0 131.33594 43.265625 233.67188 129.78906 307.01562c86.52734 73.34375 207.26172 110.015625 362.20312 110.015625c148.90625 0 266.6211 -36.671875 353.14844 -110.015625c86.52734 -73.34375 129.78906 -175.67969 129.78906 -307.01562l0 -9305.133c0 -131.33594 -43.26172 -233.67188 -129.78906 -307.01562c-86.52734 -73.34375 -204.24219 -110.015625 -353.14844 -110.015625z" fill-rule="evenodd"/><path stroke="#000000" stroke-width="1.0" stroke-linejoin="round" stroke-linecap="butt" d="m60237.43 71796.445c-1334.1172 0 -2309.0469 259.2578 -2924.793 777.77344c-613.73047 518.5156 -920.59766 1351.7266 -920.59766 2499.625l0 3576.7344c0 1137.6641 308.8789 1968.3125 926.6367 2491.9453c617.7578 523.6328 1597.7188 785.4453 2939.8828 785.4453l2224.5273 0c1136.918 0 1983.0625 -200.41406 2538.4414 -601.2344c557.3867 -400.82812 864.2539 -1043.8594 920.59766 -1929.0859c18.109375 -136.45312 -15.0859375 -242.20312 -99.60156 -317.25c-82.50781 -76.75781 -204.24219 -115.13281 -365.22266 -115.13281c-309.88672 0 -479.91797 139.00781 -510.10156 417.03125c-42.257812 649.85156 -252.53906 1099.2891 -630.83984 1348.3125c-376.28906 247.32031 -994.04297 370.97656 -1853.2734 370.97656l-2224.5273 0c-718.3711 0 -1287.8359 -78.46094 -1708.3945 -235.38281c-420.5547 -156.91406 -723.39844 -413.60938 -908.52344 -770.09375c-185.125 -356.47656 -277.6914 -838.3203 -277.6914 -1445.5312l0 -3576.7344c0 -607.21094 90.55078 -1089.9062 271.65234 -1448.0938c183.11719 -359.89062 484.95312 -616.58594 905.5078 -770.09375c420.5586 -155.21875 986.0 -232.82031 1696.3203 -232.82031l2245.6562 0c859.22656 0 1476.9844 124.50781 1853.2734 373.53125c378.30078 249.02344 588.58203 698.46094 630.83984 1348.3125c30.183594 276.3125 200.21484 414.46875 510.10156 414.46875c160.98047 0 282.72266 -36.671875 365.22266 -110.00781c84.515625 -73.34375 117.71094 -180.80469 99.60156 -322.3672c-56.335938 -885.2344 -363.20312 -1528.2578 -920.59766 -1929.0859c-555.3789 -400.82812 -1401.5234 -601.2422 -2538.4414 -601.2422z" fill-rule="evenodd"/><path stroke="#000000" stroke-width="1.0" stroke-linejoin="round" stroke-linecap="butt" d="m69473.125 71796.445c-327.9922 0 -491.9922 139.01562 -491.9922 417.03125l0 9297.461c0 278.02344 164.0 417.03125 491.9922 417.03125l6945.242 0c328.0 0 491.9922 -139.00781 491.9922 -417.03125c0 -272.89844 -163.99219 -409.35156 -491.9922 -409.35156l-6462.3047 0l0 -3888.8672l4273.992 0c328.0 0 492.0 -139.00781 492.0 -417.03125c0 -272.89844 -164.0 -409.35156 -492.0 -409.35156l-4273.992 0l0 -3763.5l6462.3047 0c328.0 0 491.9922 -136.45312 491.9922 -409.35938c0 -278.01562 -163.99219 -417.03125 -491.9922 -417.03125z" fill-rule="evenodd"/><path stroke="#000000" stroke-width="1.0" stroke-linejoin="round" stroke-linecap="butt" d="m82566.13 71796.445c-1080.5703 0 -1873.3906 214.91406 -2378.461 644.7344c-503.0625 429.8203 -754.59375 1103.5547 -754.59375 2021.1875c0 915.9297 253.53906 1588.8047 760.625 2018.6328c507.08594 429.8203 1303.9297 644.7344 2390.539 644.7344l2541.461 0c877.33594 0 1487.0469 145.82812 1829.125 437.4922c344.09375 289.96094 516.1406 806.77344 516.1406 1550.4297c0 733.4297 -172.04688 1245.9766 -516.1406 1537.6406c-342.07812 289.96094 -951.78906 434.9375 -1829.125 434.9375l-2671.25 0c-839.10156 0 -1432.7109 -130.48438 -1780.8281 -391.4453c-346.10938 -262.67188 -531.2344 -724.0469 -555.375 -1384.125c-12.078125 -126.21875 -61.375 -226.0 -147.90625 -299.34375c-86.52344 -73.34375 -204.24219 -110.015625 -353.14844 -110.015625c-146.89062 0 -265.60938 38.375 -356.16406 115.13281c-90.546875 75.046875 -131.80469 175.67969 -123.75 301.89844c36.21875 895.46094 320.95312 1552.1328 854.1953 1970.0156c535.25 416.1797 1356.25 624.2656 2462.9766 624.2656l2671.25 0c1148.9922 0 1989.1016 -223.4375 2520.3281 -670.3125c533.25 -448.58594 799.8672 -1158.1328 799.8672 -2128.6484c0 -968.8047 -266.6172 -1680.0547 -799.8672 -2133.7578c-531.22656 -453.70312 -1371.3359 -680.5547 -2520.3281 -680.5547l-2541.461 0c-814.9531 0 -1382.4062 -134.74219 -1702.3516 -404.23438c-317.9297 -269.4922 -476.89844 -747.0703 -476.89844 -1432.7422c0 -687.375 157.96094 -1165.8047 473.8828 -1435.2969c315.92188 -269.4922 878.34375 -404.23438 1687.2578 -404.23438l2595.789 0c766.66406 0 1310.9766 120.24219 1632.9375 360.7422c321.95312 240.49219 495.0078 662.6406 519.15625 1266.4375c12.0703125 124.515625 61.375 223.44531 147.89844 296.78125c86.52344 73.34375 201.22656 110.015625 344.09375 110.015625c154.9375 0 276.6797 -37.523438 365.21875 -112.57031c90.55469 -76.75781 129.78906 -177.39062 117.71875 -301.89844c-38.234375 -844.2969 -309.8828 -1462.5938 -814.96094 -1854.8906c-503.0547 -394.0 -1273.7422 -591.0078 -2312.0625 -591.0078z" fill-rule="evenodd"/></g></svg>